G04*
G04 #@! TF.GenerationSoftware,Altium Limited,Altium Designer,23.3.1 (30)*
G04*
G04 Layer_Color=8421504*
%FSLAX26Y26*%
%MOIN*%
G70*
G04*
G04 #@! TF.SameCoordinates,CCAFB082-66E9-4EF7-9244-D7FC5D9F632E*
G04*
G04*
G04 #@! TF.FilePolarity,Positive*
G04*
G01*
G75*
%ADD17R,0.039370X0.216535*%
%ADD18R,0.062992X0.118110*%
%ADD19R,0.051181X0.070866*%
G04:AMPARAMS|DCode=20|XSize=52.688mil|YSize=22.754mil|CornerRadius=11.377mil|HoleSize=0mil|Usage=FLASHONLY|Rotation=0.000|XOffset=0mil|YOffset=0mil|HoleType=Round|Shape=RoundedRectangle|*
%AMROUNDEDRECTD20*
21,1,0.052688,0.000000,0,0,0.0*
21,1,0.029934,0.022754,0,0,0.0*
1,1,0.022754,0.014967,0.000000*
1,1,0.022754,-0.014967,0.000000*
1,1,0.022754,-0.014967,0.000000*
1,1,0.022754,0.014967,0.000000*
%
%ADD20ROUNDEDRECTD20*%
%ADD21R,0.052688X0.022754*%
G04:AMPARAMS|DCode=22|XSize=21.654mil|YSize=19.685mil|CornerRadius=2.461mil|HoleSize=0mil|Usage=FLASHONLY|Rotation=90.000|XOffset=0mil|YOffset=0mil|HoleType=Round|Shape=RoundedRectangle|*
%AMROUNDEDRECTD22*
21,1,0.021654,0.014764,0,0,90.0*
21,1,0.016732,0.019685,0,0,90.0*
1,1,0.004921,0.007382,0.008366*
1,1,0.004921,0.007382,-0.008366*
1,1,0.004921,-0.007382,-0.008366*
1,1,0.004921,-0.007382,0.008366*
%
%ADD22ROUNDEDRECTD22*%
%ADD23R,0.030000X0.060000*%
%ADD24R,0.035827X0.048032*%
%ADD25R,0.062990X0.070870*%
%ADD26R,0.031496X0.035433*%
%ADD27R,0.031496X0.039370*%
%ADD28R,0.039370X0.043310*%
%ADD29R,0.025000X0.050000*%
D17*
X811260Y210000D02*
D03*
X890000D02*
D03*
X1047480D02*
D03*
X1126220D02*
D03*
X968740D02*
D03*
X1725040D02*
D03*
X1803780D02*
D03*
X1961260D02*
D03*
X2040000D02*
D03*
X1882520D02*
D03*
D18*
X1220708Y121418D02*
D03*
X716772D02*
D03*
X2134488D02*
D03*
X1630552D02*
D03*
D19*
X994882Y660000D02*
D03*
X1105118D02*
D03*
X2244882D02*
D03*
X2355118D02*
D03*
D20*
X1093946Y577402D02*
D03*
Y502598D02*
D03*
X1006054D02*
D03*
Y540000D02*
D03*
X2343946Y578268D02*
D03*
Y503464D02*
D03*
X2256054D02*
D03*
Y540866D02*
D03*
D21*
X1006054Y577402D02*
D03*
X2256054Y578268D02*
D03*
D22*
X1067716Y730000D02*
D03*
X1032284D02*
D03*
X2317716D02*
D03*
X2282284D02*
D03*
D23*
X1525000Y870000D02*
D03*
Y650000D02*
D03*
X1375000Y870000D02*
D03*
Y650000D02*
D03*
D24*
X525630Y720000D02*
D03*
X654370D02*
D03*
X785630D02*
D03*
X914370D02*
D03*
X1785630D02*
D03*
X1914370D02*
D03*
X2025630D02*
D03*
X2154370D02*
D03*
D25*
X194880Y870000D02*
D03*
X305120D02*
D03*
D26*
X850000Y486692D02*
D03*
X810630Y573308D02*
D03*
X889370D02*
D03*
X2090000Y486692D02*
D03*
X2050630Y573308D02*
D03*
X2129370D02*
D03*
X590000Y486692D02*
D03*
X550630Y573308D02*
D03*
X629370D02*
D03*
X1850000Y486692D02*
D03*
X1810630Y573308D02*
D03*
X1889370D02*
D03*
D27*
X879528Y640000D02*
D03*
X820472D02*
D03*
X2119528D02*
D03*
X2060472D02*
D03*
X619528D02*
D03*
X560472D02*
D03*
X1879528D02*
D03*
X1820472D02*
D03*
D28*
X1290000Y806540D02*
D03*
Y873460D02*
D03*
X303770Y612490D02*
D03*
Y545570D02*
D03*
X230510Y610490D02*
D03*
Y543570D02*
D03*
D29*
X230000Y695000D02*
D03*
X270000D02*
D03*
X310000D02*
D03*
M02*
