M48
;Layer_Color=9474304
;FILE_FORMAT=2:5
INCH,LZ
;TYPE=PLATED
T1F00S00C0.00500
T2F00S00C0.02000
T3F00S00C0.02800
T4F00S00C0.04000
;TYPE=NON_PLATED
T5F00S00C0.12000
%
T01
X0051Y0032
X0148Y0031
X0145Y0076
X0245Y008
T02
X0026Y008
X0036Y0073
X0075Y00859
X0097Y0074
X0106Y0082
X011626Y005774
X011574Y005026
X0112622Y00363
X0204
X0240654Y0050346
X0240827Y0057827
T03
X0016Y0047
X0023
X003
X0037
T04
X0032953Y0099213
Y0109213
X0042953
X0052953
X0062953
X0072953
X0082953
X0092953
X0102953
X0112953
X0122953
X0132953
X0142953
X0152953
Y0099213
X0142953
X0132953
X0122953
X0112953
X0102953
X0092953
X0082953
X0072953
X0062953
X0052953
X0042953
X0162953
X0172953
X0182953
X0192953
X0202953
X0212953
X0222953
Y0109213
X0212953
X0202953
X0192953
X0182953
X0172953
X0162953
T05
X001378Y001378
Y0104331
X0242126
Y001378
M30
