G04*
G04 #@! TF.GenerationSoftware,Altium Limited,Altium Designer,23.3.1 (30)*
G04*
G04 Layer_Physical_Order=2*
G04 Layer_Color=16711680*
%FSLAX26Y26*%
%MOIN*%
G70*
G04*
G04 #@! TF.SameCoordinates,CCAFB082-66E9-4EF7-9244-D7FC5D9F632E*
G04*
G04*
G04 #@! TF.FilePolarity,Positive*
G04*
G01*
G75*
%ADD15C,0.010000*%
%ADD47C,0.120000*%
%ADD48C,0.074000*%
%ADD49C,0.020000*%
%ADD50C,0.050000*%
%ADD51C,0.040000*%
%ADD52R,0.050000X0.025000*%
G36*
X2417777Y1179476D02*
X2399916Y1178071D01*
X2379097Y1173073D01*
X2359317Y1164880D01*
X2341062Y1153693D01*
X2324782Y1139788D01*
X2310877Y1123508D01*
X2299691Y1105253D01*
X2291497Y1085473D01*
X2286499Y1064654D01*
X2284819Y1043310D01*
X2286499Y1021966D01*
X2291497Y1001148D01*
X2299691Y981367D01*
X2310877Y963112D01*
X2324782Y946832D01*
X2341062Y932927D01*
X2359317Y921740D01*
X2379097Y913547D01*
X2399916Y908549D01*
X2421260Y906869D01*
X2442604Y908549D01*
X2463423Y913547D01*
X2483203Y921740D01*
X2501458Y932927D01*
X2517738Y946832D01*
X2531643Y963112D01*
X2537934Y973379D01*
X2542747Y972022D01*
Y209088D01*
X2537934Y207731D01*
X2531643Y217998D01*
X2517738Y234278D01*
X2501458Y248183D01*
X2483203Y259370D01*
X2463423Y267563D01*
X2442604Y272561D01*
X2421260Y274241D01*
X2399916Y272561D01*
X2379097Y267563D01*
X2359317Y259370D01*
X2341062Y248183D01*
X2324782Y234278D01*
X2310877Y217998D01*
X2299691Y199743D01*
X2291497Y179963D01*
X2286499Y159144D01*
X2284819Y137800D01*
X2286499Y116456D01*
X2291497Y95638D01*
X2299691Y75857D01*
X2310877Y57602D01*
X2324782Y41322D01*
X2341062Y27417D01*
X2351329Y21126D01*
X2349972Y16314D01*
X209088D01*
X207731Y21126D01*
X217998Y27417D01*
X234278Y41322D01*
X248183Y57602D01*
X259370Y75857D01*
X267563Y95638D01*
X272561Y116456D01*
X274241Y137800D01*
X272561Y159144D01*
X267563Y179963D01*
X259370Y199743D01*
X248183Y217998D01*
X234278Y234278D01*
X217998Y248183D01*
X199743Y259370D01*
X179963Y267563D01*
X159144Y272561D01*
X137800Y274241D01*
X116456Y272561D01*
X95638Y267563D01*
X75857Y259370D01*
X57602Y248183D01*
X41322Y234278D01*
X27417Y217998D01*
X21126Y207731D01*
X16314Y209088D01*
Y972022D01*
X21126Y973379D01*
X27417Y963112D01*
X41322Y946832D01*
X57602Y932927D01*
X75857Y921740D01*
X95638Y913547D01*
X116456Y908549D01*
X137800Y906869D01*
X159144Y908549D01*
X179963Y913547D01*
X199743Y921740D01*
X217998Y932927D01*
X234278Y946832D01*
X248183Y963112D01*
X259370Y981367D01*
X267563Y1001148D01*
X272561Y1021966D01*
X274241Y1043310D01*
X272561Y1064654D01*
X267563Y1085473D01*
X259370Y1105253D01*
X248183Y1123508D01*
X234278Y1139788D01*
X217998Y1153693D01*
X199743Y1164880D01*
X179963Y1173073D01*
X159144Y1178071D01*
X141283Y1179476D01*
X141479Y1184476D01*
X2417581D01*
X2417777Y1179476D01*
D02*
G37*
%LPC*%
G36*
X2229530Y1141553D02*
X2216738Y1139869D01*
X2204819Y1134931D01*
X2194583Y1127077D01*
X2186729Y1116841D01*
X2182130Y1105740D01*
X2179530Y1105302D01*
X2176930Y1105740D01*
X2172331Y1116841D01*
X2164477Y1127077D01*
X2154241Y1134931D01*
X2142322Y1139869D01*
X2129530Y1141553D01*
X2116738Y1139869D01*
X2104819Y1134931D01*
X2094583Y1127077D01*
X2086729Y1116841D01*
X2082130Y1105740D01*
X2079530Y1105302D01*
X2076930Y1105740D01*
X2072331Y1116841D01*
X2064477Y1127077D01*
X2054241Y1134931D01*
X2042322Y1139869D01*
X2029530Y1141553D01*
X2016738Y1139869D01*
X2004819Y1134931D01*
X1994583Y1127077D01*
X1986729Y1116841D01*
X1981791Y1104922D01*
X1980107Y1092130D01*
X1981791Y1079338D01*
X1986729Y1067419D01*
X1994583Y1057183D01*
X2004819Y1049329D01*
X2015920Y1044730D01*
X2016358Y1042130D01*
X2015920Y1039530D01*
X2004819Y1034931D01*
X1994583Y1027077D01*
X1986729Y1016841D01*
X1982130Y1005740D01*
X1979530Y1005302D01*
X1976930Y1005740D01*
X1972331Y1016841D01*
X1964477Y1027077D01*
X1954241Y1034931D01*
X1942322Y1039869D01*
X1929530Y1041553D01*
X1916738Y1039869D01*
X1904819Y1034931D01*
X1894583Y1027077D01*
X1886729Y1016841D01*
X1882130Y1005740D01*
X1879530Y1005302D01*
X1876930Y1005740D01*
X1872331Y1016841D01*
X1864477Y1027077D01*
X1854241Y1034931D01*
X1843140Y1039530D01*
X1842702Y1042130D01*
X1843140Y1044730D01*
X1854241Y1049329D01*
X1864477Y1057183D01*
X1872331Y1067419D01*
X1877269Y1079338D01*
X1878953Y1092130D01*
X1877269Y1104922D01*
X1872331Y1116841D01*
X1864477Y1127077D01*
X1854241Y1134931D01*
X1842322Y1139869D01*
X1829530Y1141553D01*
X1816738Y1139869D01*
X1804819Y1134931D01*
X1794583Y1127077D01*
X1786729Y1116841D01*
X1781791Y1104922D01*
X1780107Y1092130D01*
X1781791Y1079338D01*
X1786729Y1067419D01*
X1794583Y1057183D01*
X1804819Y1049329D01*
X1815920Y1044730D01*
X1816358Y1042130D01*
X1815920Y1039530D01*
X1804819Y1034931D01*
X1794583Y1027077D01*
X1786729Y1016841D01*
X1782130Y1005740D01*
X1779530Y1005302D01*
X1776930Y1005740D01*
X1772331Y1016841D01*
X1764477Y1027077D01*
X1754241Y1034931D01*
X1742322Y1039869D01*
X1729530Y1041553D01*
X1716738Y1039869D01*
X1704819Y1034931D01*
X1694583Y1027077D01*
X1686729Y1016841D01*
X1682130Y1005740D01*
X1679530Y1005302D01*
X1676930Y1005740D01*
X1672331Y1016841D01*
X1664477Y1027077D01*
X1654241Y1034931D01*
X1643140Y1039530D01*
X1642702Y1042130D01*
X1643140Y1044730D01*
X1654241Y1049329D01*
X1664477Y1057183D01*
X1672331Y1067419D01*
X1677269Y1079338D01*
X1678953Y1092130D01*
X1677269Y1104922D01*
X1672331Y1116841D01*
X1664477Y1127077D01*
X1654241Y1134931D01*
X1642322Y1139869D01*
X1629530Y1141553D01*
X1616738Y1139869D01*
X1604819Y1134931D01*
X1594583Y1127077D01*
X1586729Y1116841D01*
X1582130Y1105740D01*
X1579530Y1105302D01*
X1576930Y1105740D01*
X1572331Y1116841D01*
X1564477Y1127077D01*
X1554241Y1134931D01*
X1542322Y1139869D01*
X1529530Y1141553D01*
X1516738Y1139869D01*
X1504819Y1134931D01*
X1494583Y1127077D01*
X1486729Y1116841D01*
X1482130Y1105740D01*
X1479530Y1105302D01*
X1476930Y1105740D01*
X1472331Y1116841D01*
X1464477Y1127077D01*
X1454241Y1134931D01*
X1442322Y1139869D01*
X1429530Y1141553D01*
X1416738Y1139869D01*
X1404819Y1134931D01*
X1394583Y1127077D01*
X1386729Y1116841D01*
X1382130Y1105740D01*
X1379530Y1105302D01*
X1376930Y1105740D01*
X1372331Y1116841D01*
X1364477Y1127077D01*
X1354241Y1134931D01*
X1342322Y1139869D01*
X1329530Y1141553D01*
X1316738Y1139869D01*
X1304819Y1134931D01*
X1294583Y1127077D01*
X1286729Y1116841D01*
X1281791Y1104922D01*
X1280107Y1092130D01*
X1281791Y1079338D01*
X1286729Y1067419D01*
X1294583Y1057183D01*
X1304819Y1049329D01*
X1315920Y1044730D01*
X1316358Y1042130D01*
X1315920Y1039530D01*
X1304819Y1034931D01*
X1294583Y1027077D01*
X1286729Y1016841D01*
X1282130Y1005740D01*
X1279530Y1005302D01*
X1276930Y1005740D01*
X1272331Y1016841D01*
X1264477Y1027077D01*
X1254241Y1034931D01*
X1242322Y1039869D01*
X1229530Y1041553D01*
X1216738Y1039869D01*
X1204819Y1034931D01*
X1194583Y1027077D01*
X1186729Y1016841D01*
X1182130Y1005740D01*
X1179530Y1005302D01*
X1176930Y1005740D01*
X1172331Y1016841D01*
X1164477Y1027077D01*
X1154241Y1034931D01*
X1143140Y1039530D01*
X1142702Y1042130D01*
X1143140Y1044730D01*
X1154241Y1049329D01*
X1164477Y1057183D01*
X1172331Y1067419D01*
X1177269Y1079338D01*
X1178953Y1092130D01*
X1177269Y1104922D01*
X1172331Y1116841D01*
X1164477Y1127077D01*
X1154241Y1134931D01*
X1142322Y1139869D01*
X1129530Y1141553D01*
X1116738Y1139869D01*
X1104819Y1134931D01*
X1094583Y1127077D01*
X1086729Y1116841D01*
X1082130Y1105740D01*
X1079530Y1105302D01*
X1076930Y1105740D01*
X1072331Y1116841D01*
X1064477Y1127077D01*
X1054241Y1134931D01*
X1042322Y1139869D01*
X1029530Y1141553D01*
X1016738Y1139869D01*
X1004819Y1134931D01*
X994583Y1127077D01*
X986729Y1116841D01*
X981791Y1104922D01*
X980107Y1092130D01*
X981791Y1079338D01*
X986729Y1067419D01*
X994583Y1057183D01*
X1004819Y1049329D01*
X1015920Y1044730D01*
X1016358Y1042130D01*
X1015920Y1039530D01*
X1004819Y1034931D01*
X994583Y1027077D01*
X986729Y1016841D01*
X982130Y1005740D01*
X979530Y1005302D01*
X976930Y1005740D01*
X972331Y1016841D01*
X964477Y1027077D01*
X954241Y1034931D01*
X942322Y1039869D01*
X929530Y1041553D01*
X916738Y1039869D01*
X904819Y1034931D01*
X894583Y1027077D01*
X886729Y1016841D01*
X882130Y1005740D01*
X879530Y1005302D01*
X876930Y1005740D01*
X872331Y1016841D01*
X864477Y1027077D01*
X854241Y1034931D01*
X843140Y1039530D01*
X842702Y1042130D01*
X843140Y1044730D01*
X854241Y1049329D01*
X864477Y1057183D01*
X872331Y1067419D01*
X877269Y1079338D01*
X878953Y1092130D01*
X877269Y1104922D01*
X872331Y1116841D01*
X864477Y1127077D01*
X854241Y1134931D01*
X842322Y1139869D01*
X829530Y1141553D01*
X816738Y1139869D01*
X804819Y1134931D01*
X794583Y1127077D01*
X786729Y1116841D01*
X782130Y1105740D01*
X779530Y1105302D01*
X776930Y1105740D01*
X772331Y1116841D01*
X764477Y1127077D01*
X754241Y1134931D01*
X742322Y1139869D01*
X729530Y1141553D01*
X716738Y1139869D01*
X704819Y1134931D01*
X694583Y1127077D01*
X686729Y1116841D01*
X682130Y1105740D01*
X679530Y1105302D01*
X676930Y1105740D01*
X672331Y1116841D01*
X664477Y1127077D01*
X654241Y1134931D01*
X642322Y1139869D01*
X629530Y1141553D01*
X616738Y1139869D01*
X604819Y1134931D01*
X594583Y1127077D01*
X586729Y1116841D01*
X581791Y1104922D01*
X580107Y1092130D01*
X581791Y1079338D01*
X586729Y1067419D01*
X594583Y1057183D01*
X604819Y1049329D01*
X615920Y1044730D01*
X616358Y1042130D01*
X615920Y1039530D01*
X604819Y1034931D01*
X594583Y1027077D01*
X586729Y1016841D01*
X582130Y1005740D01*
X579530Y1005302D01*
X576930Y1005740D01*
X572331Y1016841D01*
X564477Y1027077D01*
X554241Y1034931D01*
X542322Y1039869D01*
X529530Y1041553D01*
X516738Y1039869D01*
X504819Y1034931D01*
X501347Y1032268D01*
X496863Y1034479D01*
Y1042130D01*
X495544Y1048763D01*
X491786Y1054386D01*
X474213Y1071960D01*
X477269Y1079338D01*
X478953Y1092130D01*
X477269Y1104922D01*
X472331Y1116841D01*
X464477Y1127077D01*
X454241Y1134931D01*
X442322Y1139869D01*
X429530Y1141553D01*
X416738Y1139869D01*
X404819Y1134931D01*
X394583Y1127077D01*
X386729Y1116841D01*
X382130Y1105740D01*
X379530Y1105302D01*
X376930Y1105740D01*
X372331Y1116841D01*
X364477Y1127077D01*
X354241Y1134931D01*
X342322Y1139869D01*
X329530Y1141553D01*
X316738Y1139869D01*
X304819Y1134931D01*
X294583Y1127077D01*
X286729Y1116841D01*
X281791Y1104922D01*
X280107Y1092130D01*
X281791Y1079338D01*
X286729Y1067419D01*
X294583Y1057183D01*
X304819Y1049329D01*
X315920Y1044730D01*
X316358Y1042130D01*
X315920Y1039530D01*
X304819Y1034931D01*
X294583Y1027077D01*
X286729Y1016841D01*
X281791Y1004922D01*
X280107Y992130D01*
X281791Y979338D01*
X286729Y967419D01*
X294583Y957183D01*
X304819Y949329D01*
X316738Y944391D01*
X329530Y942707D01*
X342322Y944391D01*
X354241Y949329D01*
X364477Y957183D01*
X372331Y967419D01*
X376930Y978520D01*
X379530Y978958D01*
X382130Y978520D01*
X386729Y967419D01*
X394583Y957183D01*
X404819Y949329D01*
X416738Y944391D01*
X429530Y942707D01*
X431256Y942934D01*
X433467Y938450D01*
X393350Y898333D01*
X284000D01*
Y905500D01*
X210000D01*
Y856500D01*
Y824500D01*
X232162D01*
X234628Y819500D01*
X232048Y816138D01*
X228824Y808354D01*
X227724Y800000D01*
X228824Y791646D01*
X232048Y783862D01*
X237177Y777177D01*
X243862Y772048D01*
X251646Y768824D01*
X260000Y767724D01*
X268354Y768824D01*
X276138Y772048D01*
X282823Y777177D01*
X287952Y783862D01*
X291176Y791646D01*
X292276Y800000D01*
X291176Y808354D01*
X287952Y816138D01*
X285041Y819931D01*
X284000Y824500D01*
X284000Y824500D01*
X284000Y824500D01*
Y863667D01*
X400530D01*
X407163Y864986D01*
X412786Y868744D01*
X491786Y947744D01*
X494120Y951236D01*
X500161Y952902D01*
X504819Y949329D01*
X516738Y944391D01*
X529530Y942707D01*
X542322Y944391D01*
X554241Y949329D01*
X564477Y957183D01*
X572331Y967419D01*
X576930Y978520D01*
X579530Y978958D01*
X582130Y978520D01*
X586729Y967419D01*
X594583Y957183D01*
X604819Y949329D01*
X616738Y944391D01*
X629530Y942707D01*
X642322Y944391D01*
X654241Y949329D01*
X664477Y957183D01*
X672331Y967419D01*
X677269Y979338D01*
X678953Y992130D01*
X677269Y1004922D01*
X672331Y1016841D01*
X664477Y1027077D01*
X654241Y1034931D01*
X643140Y1039530D01*
X642702Y1042130D01*
X643140Y1044730D01*
X654241Y1049329D01*
X664477Y1057183D01*
X672331Y1067419D01*
X676930Y1078520D01*
X679530Y1078958D01*
X682130Y1078520D01*
X686729Y1067419D01*
X694583Y1057183D01*
X704819Y1049329D01*
X716738Y1044391D01*
X729530Y1042707D01*
X742322Y1044391D01*
X754241Y1049329D01*
X764477Y1057183D01*
X772331Y1067419D01*
X776930Y1078520D01*
X779530Y1078958D01*
X782130Y1078520D01*
X786729Y1067419D01*
X794583Y1057183D01*
X804819Y1049329D01*
X815920Y1044730D01*
X816358Y1042130D01*
X815920Y1039530D01*
X804819Y1034931D01*
X794583Y1027077D01*
X786729Y1016841D01*
X781791Y1004922D01*
X780107Y992130D01*
X781791Y979338D01*
X786729Y967419D01*
X794583Y957183D01*
X804819Y949329D01*
X816738Y944391D01*
X829530Y942707D01*
X842322Y944391D01*
X854241Y949329D01*
X864477Y957183D01*
X872331Y967419D01*
X876930Y978520D01*
X879530Y978958D01*
X882130Y978520D01*
X886729Y967419D01*
X894583Y957183D01*
X904819Y949329D01*
X916738Y944391D01*
X929530Y942707D01*
X942322Y944391D01*
X954241Y949329D01*
X964477Y957183D01*
X972331Y967419D01*
X976930Y978520D01*
X979530Y978958D01*
X982130Y978520D01*
X986729Y967419D01*
X994583Y957183D01*
X1004819Y949329D01*
X1016738Y944391D01*
X1029530Y942707D01*
X1042322Y944391D01*
X1054241Y949329D01*
X1064477Y957183D01*
X1072331Y967419D01*
X1076930Y978520D01*
X1079530Y978958D01*
X1082130Y978520D01*
X1086729Y967419D01*
X1094583Y957183D01*
X1104819Y949329D01*
X1116738Y944391D01*
X1129530Y942707D01*
X1142322Y944391D01*
X1154241Y949329D01*
X1164477Y957183D01*
X1172331Y967419D01*
X1176930Y978520D01*
X1179530Y978958D01*
X1182130Y978520D01*
X1186729Y967419D01*
X1194583Y957183D01*
X1204819Y949329D01*
X1216738Y944391D01*
X1229530Y942707D01*
X1242322Y944391D01*
X1254241Y949329D01*
X1264477Y957183D01*
X1272331Y967419D01*
X1276930Y978520D01*
X1279530Y978958D01*
X1282130Y978520D01*
X1286729Y967419D01*
X1294583Y957183D01*
X1304819Y949329D01*
X1316738Y944391D01*
X1329530Y942707D01*
X1342322Y944391D01*
X1354241Y949329D01*
X1364477Y957183D01*
X1372331Y967419D01*
X1376930Y978520D01*
X1379530Y978958D01*
X1382130Y978520D01*
X1386729Y967419D01*
X1394583Y957183D01*
X1404819Y949329D01*
X1416738Y944391D01*
X1429530Y942707D01*
X1442322Y944391D01*
X1454241Y949329D01*
X1464477Y957183D01*
X1472331Y967419D01*
X1477269Y979338D01*
X1478953Y992130D01*
X1477269Y1004922D01*
X1472331Y1016841D01*
X1464477Y1027077D01*
X1454241Y1034931D01*
X1443140Y1039530D01*
X1442702Y1042130D01*
X1443140Y1044730D01*
X1454241Y1049329D01*
X1464477Y1057183D01*
X1472331Y1067419D01*
X1476930Y1078520D01*
X1479530Y1078958D01*
X1482130Y1078520D01*
X1486729Y1067419D01*
X1494583Y1057183D01*
X1504819Y1049329D01*
X1516738Y1044391D01*
X1529530Y1042707D01*
X1542322Y1044391D01*
X1554241Y1049329D01*
X1564477Y1057183D01*
X1572331Y1067419D01*
X1576930Y1078520D01*
X1579530Y1078958D01*
X1582130Y1078520D01*
X1586729Y1067419D01*
X1594583Y1057183D01*
X1604819Y1049329D01*
X1615920Y1044730D01*
X1616358Y1042130D01*
X1615920Y1039530D01*
X1604819Y1034931D01*
X1594583Y1027077D01*
X1586729Y1016841D01*
X1581791Y1004922D01*
X1580107Y992130D01*
X1581791Y979338D01*
X1586729Y967419D01*
X1594583Y957183D01*
X1604819Y949329D01*
X1616738Y944391D01*
X1629530Y942707D01*
X1642322Y944391D01*
X1654241Y949329D01*
X1664477Y957183D01*
X1672331Y967419D01*
X1676930Y978520D01*
X1679530Y978958D01*
X1682130Y978520D01*
X1686729Y967419D01*
X1694583Y957183D01*
X1704819Y949329D01*
X1716738Y944391D01*
X1729530Y942707D01*
X1742322Y944391D01*
X1754241Y949329D01*
X1764477Y957183D01*
X1772331Y967419D01*
X1776930Y978520D01*
X1779530Y978958D01*
X1782130Y978520D01*
X1786729Y967419D01*
X1794583Y957183D01*
X1804819Y949329D01*
X1816738Y944391D01*
X1829530Y942707D01*
X1842322Y944391D01*
X1854241Y949329D01*
X1858125Y952308D01*
X1861429Y948541D01*
X1789220Y876333D01*
X777035D01*
X772823Y881823D01*
X766138Y886952D01*
X758354Y890176D01*
X750000Y891276D01*
X741646Y890176D01*
X733862Y886952D01*
X727177Y881823D01*
X722048Y875138D01*
X718824Y867354D01*
X717724Y859000D01*
X718824Y850646D01*
X722048Y842862D01*
X727177Y836177D01*
X733862Y831048D01*
X741646Y827824D01*
X750000Y826724D01*
X758354Y827824D01*
X766138Y831048D01*
X772823Y836177D01*
X777035Y841667D01*
X1030638D01*
X1032850Y837183D01*
X1032048Y836138D01*
X1028824Y828354D01*
X1027724Y820000D01*
X1028045Y817558D01*
X980694Y770207D01*
X978354Y771176D01*
X970000Y772276D01*
X963140Y771373D01*
X942256Y792256D01*
X936633Y796014D01*
X930000Y797333D01*
X490000D01*
X483367Y796014D01*
X477744Y792256D01*
X432820Y747333D01*
X387035D01*
X382823Y752823D01*
X376138Y757952D01*
X368354Y761176D01*
X360000Y762276D01*
X351646Y761176D01*
X343862Y757952D01*
X337177Y752823D01*
X332048Y746138D01*
X328824Y738354D01*
X327724Y730000D01*
X328627Y723140D01*
X147744Y542256D01*
X143986Y536633D01*
X142667Y530000D01*
Y502869D01*
X141340Y502320D01*
X133611Y496389D01*
X127680Y488660D01*
X123952Y479659D01*
X122681Y470000D01*
X123952Y460341D01*
X127680Y451340D01*
X133611Y443611D01*
X141340Y437680D01*
X150341Y433952D01*
X160000Y432681D01*
X169659Y433952D01*
X178660Y437680D01*
X186389Y443611D01*
X192320Y451340D01*
X192500Y451776D01*
X197500D01*
X197680Y451340D01*
X203611Y443611D01*
X211340Y437680D01*
X220341Y433952D01*
X230000Y432681D01*
X239659Y433952D01*
X240986Y434502D01*
X277744Y397744D01*
X283367Y393986D01*
X290000Y392667D01*
X400000D01*
X406633Y393986D01*
X412256Y397744D01*
X499777Y485265D01*
X1130367D01*
X1134579Y479775D01*
X1141264Y474646D01*
X1149048Y471422D01*
X1157402Y470322D01*
X1165756Y471422D01*
X1173540Y474646D01*
X1180225Y479775D01*
X1184769Y485698D01*
X2379833D01*
X2383713Y480641D01*
X2390398Y475512D01*
X2398182Y472288D01*
X2406536Y471188D01*
X2414890Y472288D01*
X2422674Y475512D01*
X2429359Y480641D01*
X2434488Y487326D01*
X2437712Y495110D01*
X2438812Y503464D01*
X2437712Y511818D01*
X2434488Y519602D01*
X2429359Y526287D01*
X2422674Y531416D01*
X2414890Y534640D01*
X2406536Y535740D01*
X2398182Y534640D01*
X2390398Y531416D01*
X2383713Y526287D01*
X2379169Y520364D01*
X1184105D01*
X1180225Y525421D01*
X1173540Y530550D01*
X1165756Y533774D01*
X1157402Y534874D01*
X1149048Y533774D01*
X1141264Y530550D01*
X1134579Y525421D01*
X1130367Y519931D01*
X492598D01*
X485965Y518612D01*
X480342Y514854D01*
X480341Y514854D01*
X392820Y427333D01*
X301132D01*
X300872Y427752D01*
X303415Y433130D01*
X309659Y433952D01*
X318660Y437680D01*
X326389Y443611D01*
X332320Y451340D01*
X336048Y460341D01*
X337319Y470000D01*
X336048Y479659D01*
X335498Y480986D01*
X414582Y560069D01*
X1135563D01*
X1139775Y554579D01*
X1146460Y549450D01*
X1154244Y546226D01*
X1162598Y545126D01*
X1170952Y546226D01*
X1178736Y549450D01*
X1185421Y554579D01*
X1189965Y560502D01*
X2381565D01*
X2385445Y555445D01*
X2392130Y550316D01*
X2399914Y547092D01*
X2408268Y545992D01*
X2416622Y547092D01*
X2424406Y550316D01*
X2431091Y555445D01*
X2436220Y562130D01*
X2439444Y569914D01*
X2440544Y578268D01*
X2439444Y586622D01*
X2436220Y594406D01*
X2431091Y601091D01*
X2424406Y606220D01*
X2416622Y609444D01*
X2408268Y610544D01*
X2399914Y609444D01*
X2392130Y606220D01*
X2385445Y601091D01*
X2380901Y595168D01*
X1189301D01*
X1185421Y600225D01*
X1178736Y605354D01*
X1170952Y608578D01*
X1162598Y609678D01*
X1154244Y608578D01*
X1146460Y605354D01*
X1139775Y600225D01*
X1135563Y594735D01*
X407402D01*
X407402Y594735D01*
X400769Y593416D01*
X395146Y589658D01*
X310986Y505498D01*
X309659Y506048D01*
X300000Y507319D01*
X290341Y506048D01*
X281340Y502320D01*
X273611Y496389D01*
X267680Y488660D01*
X267500Y488224D01*
X262500D01*
X262320Y488660D01*
X256389Y496389D01*
X248660Y502320D01*
X239659Y506048D01*
X230000Y507319D01*
X220341Y506048D01*
X211340Y502320D01*
X203611Y496389D01*
X197680Y488660D01*
X197500Y488224D01*
X192500D01*
X192320Y488660D01*
X186389Y496389D01*
X178660Y502320D01*
X177333Y502869D01*
Y522820D01*
X353140Y698627D01*
X360000Y697724D01*
X368354Y698824D01*
X376138Y702048D01*
X382823Y707177D01*
X387035Y712667D01*
X440000D01*
X446633Y713986D01*
X452256Y717744D01*
X497180Y762667D01*
X922820D01*
X938627Y746860D01*
X937724Y740000D01*
X938824Y731646D01*
X942048Y723862D01*
X947177Y717177D01*
X953862Y712048D01*
X961646Y708824D01*
X970000Y707724D01*
X978354Y708824D01*
X986138Y712048D01*
X992823Y717177D01*
X997952Y723862D01*
X1001176Y731646D01*
X1002276Y740000D01*
X1001955Y742442D01*
X1049306Y789793D01*
X1051646Y788824D01*
X1060000Y787724D01*
X1068354Y788824D01*
X1076138Y792048D01*
X1082823Y797177D01*
X1087952Y803862D01*
X1091176Y811646D01*
X1092276Y820000D01*
X1091176Y828354D01*
X1087952Y836138D01*
X1087150Y837183D01*
X1089362Y841667D01*
X1796400D01*
X1803033Y842986D01*
X1808656Y846744D01*
X1909360Y947447D01*
X1916738Y944391D01*
X1929530Y942707D01*
X1942322Y944391D01*
X1954241Y949329D01*
X1964477Y957183D01*
X1972331Y967419D01*
X1976930Y978520D01*
X1979530Y978958D01*
X1982130Y978520D01*
X1986729Y967419D01*
X1994583Y957183D01*
X2004819Y949329D01*
X2016738Y944391D01*
X2029530Y942707D01*
X2042322Y944391D01*
X2054241Y949329D01*
X2064477Y957183D01*
X2072331Y967419D01*
X2076930Y978520D01*
X2079530Y978958D01*
X2082130Y978520D01*
X2086729Y967419D01*
X2094583Y957183D01*
X2104819Y949329D01*
X2116738Y944391D01*
X2129530Y942707D01*
X2142322Y944391D01*
X2154241Y949329D01*
X2164477Y957183D01*
X2172331Y967419D01*
X2177269Y979338D01*
X2178953Y992130D01*
X2177269Y1004922D01*
X2172331Y1016841D01*
X2164477Y1027077D01*
X2154241Y1034931D01*
X2143140Y1039530D01*
X2142702Y1042130D01*
X2143140Y1044730D01*
X2154241Y1049329D01*
X2164477Y1057183D01*
X2172331Y1067419D01*
X2176930Y1078520D01*
X2179530Y1078958D01*
X2182130Y1078520D01*
X2186729Y1067419D01*
X2194583Y1057183D01*
X2204819Y1049329D01*
X2216738Y1044391D01*
X2229530Y1042707D01*
X2242322Y1044391D01*
X2254241Y1049329D01*
X2264477Y1057183D01*
X2272331Y1067419D01*
X2277269Y1079338D01*
X2278953Y1092130D01*
X2277269Y1104922D01*
X2272331Y1116841D01*
X2264477Y1127077D01*
X2254241Y1134931D01*
X2242322Y1139869D01*
X2229530Y1141553D01*
D02*
G37*
G36*
X2040000Y395276D02*
X2031646Y394176D01*
X2023862Y390952D01*
X2017177Y385823D01*
X2012965Y380333D01*
X1153255D01*
X1149043Y385823D01*
X1142358Y390952D01*
X1134574Y394176D01*
X1126220Y395276D01*
X1117866Y394176D01*
X1110082Y390952D01*
X1103397Y385823D01*
X1098268Y379138D01*
X1095044Y371354D01*
X1093944Y363000D01*
X1095044Y354646D01*
X1098268Y346862D01*
X1103397Y340177D01*
X1110082Y335048D01*
X1117866Y331824D01*
X1126220Y330724D01*
X1134574Y331824D01*
X1142358Y335048D01*
X1149043Y340177D01*
X1153255Y345667D01*
X2012965D01*
X2017177Y340177D01*
X2023862Y335048D01*
X2031646Y331824D01*
X2040000Y330724D01*
X2048354Y331824D01*
X2056138Y335048D01*
X2062823Y340177D01*
X2067952Y346862D01*
X2071176Y354646D01*
X2072276Y363000D01*
X2071176Y371354D01*
X2067952Y379138D01*
X2062823Y385823D01*
X2056138Y390952D01*
X2048354Y394176D01*
X2040000Y395276D01*
D02*
G37*
%LPD*%
D15*
X160000Y470000D02*
Y530000D01*
X360000Y730000D01*
X492598Y502598D02*
X1157402D01*
X400000Y410000D02*
X492598Y502598D01*
X290000Y410000D02*
X400000D01*
X230000Y470000D02*
X290000Y410000D01*
X300000Y470000D02*
X407402Y577402D01*
X1162598D01*
X1157835Y503031D02*
X2406103D01*
X1157402Y502598D02*
X1157835Y503031D01*
X2406103D02*
X2406536Y503464D01*
X1163031Y577835D02*
X2407835D01*
X2408268Y578268D01*
X1162598Y577402D02*
X1163031Y577835D01*
X975000Y740000D02*
X1055000Y820000D01*
X1060000D01*
X970000Y740000D02*
X975000D01*
X930000Y780000D02*
X970000Y740000D01*
X490000Y780000D02*
X930000D01*
X440000Y730000D02*
X490000Y780000D01*
X360000Y730000D02*
X440000D01*
X260000Y800000D02*
Y849000D01*
X247000D02*
X260000D01*
X1796400Y859000D02*
X1929530Y992130D01*
X750000Y859000D02*
X1796400D01*
X1126220Y363000D02*
X2040000D01*
X247000Y881000D02*
X400530D01*
X479530Y960000D01*
Y1042130D01*
X429530Y1092130D02*
X479530Y1042130D01*
D47*
X2421260Y1043310D02*
D03*
X137800D02*
D03*
X2421260Y137800D02*
D03*
X137800D02*
D03*
D48*
X2229530Y1092130D02*
D03*
Y992130D02*
D03*
X2129530Y1092130D02*
D03*
Y992130D02*
D03*
X2029530Y1092130D02*
D03*
Y992130D02*
D03*
X1929530Y1092130D02*
D03*
Y992130D02*
D03*
X1829530Y1092130D02*
D03*
Y992130D02*
D03*
X1729530Y1092130D02*
D03*
Y992130D02*
D03*
X1629530Y1092130D02*
D03*
Y992130D02*
D03*
X329530Y1092130D02*
D03*
X429530D02*
D03*
X529530D02*
D03*
X629530D02*
D03*
X729530D02*
D03*
X829530D02*
D03*
X929530D02*
D03*
X1029530D02*
D03*
X1129530D02*
D03*
X1229530D02*
D03*
X1329530D02*
D03*
X1429530D02*
D03*
X1529530D02*
D03*
Y992130D02*
D03*
X1429530D02*
D03*
X1329530D02*
D03*
X1229530D02*
D03*
X1129530D02*
D03*
X1029530D02*
D03*
X929530D02*
D03*
X829530D02*
D03*
X729530D02*
D03*
X629530D02*
D03*
X529530D02*
D03*
X429530D02*
D03*
X329530D02*
D03*
D49*
X2450000Y800000D02*
D03*
X1450000Y760000D02*
D03*
X510000Y320000D02*
D03*
X1480000Y310000D02*
D03*
D50*
X370000Y470000D02*
D03*
X160000D02*
D03*
X300000D02*
D03*
X230000D02*
D03*
D51*
X2408268Y578268D02*
D03*
X2406536Y503464D02*
D03*
X1162598Y577402D02*
D03*
X1157402Y502598D02*
D03*
X1060000Y820000D02*
D03*
X970000Y740000D02*
D03*
X360000Y730000D02*
D03*
X260000Y800000D02*
D03*
X750000Y859000D02*
D03*
X2040000Y363000D02*
D03*
X1126220D02*
D03*
D52*
X247000Y881000D02*
D03*
Y849000D02*
D03*
M02*
