G04*
G04 #@! TF.GenerationSoftware,Altium Limited,Altium Designer,23.3.1 (30)*
G04*
G04 Layer_Color=8388736*
%FSLAX26Y26*%
%MOIN*%
G70*
G04*
G04 #@! TF.SameCoordinates,CCAFB082-66E9-4EF7-9244-D7FC5D9F632E*
G04*
G04*
G04 #@! TF.FilePolarity,Negative*
G04*
G01*
G75*
G04:AMPARAMS|DCode=20|XSize=52.688mil|YSize=22.754mil|CornerRadius=11.377mil|HoleSize=0mil|Usage=FLASHONLY|Rotation=0.000|XOffset=0mil|YOffset=0mil|HoleType=Round|Shape=RoundedRectangle|*
%AMROUNDEDRECTD20*
21,1,0.052688,0.000000,0,0,0.0*
21,1,0.029934,0.022754,0,0,0.0*
1,1,0.022754,0.014967,0.000000*
1,1,0.022754,-0.014967,0.000000*
1,1,0.022754,-0.014967,0.000000*
1,1,0.022754,0.014967,0.000000*
%
%ADD20ROUNDEDRECTD20*%
%ADD21R,0.052688X0.022754*%
%ADD26R,0.031496X0.035433*%
%ADD30R,0.047370X0.224535*%
%ADD31R,0.070992X0.126110*%
%ADD32R,0.059181X0.078866*%
G04:AMPARAMS|DCode=33|XSize=29.654mil|YSize=27.685mil|CornerRadius=6.461mil|HoleSize=0mil|Usage=FLASHONLY|Rotation=90.000|XOffset=0mil|YOffset=0mil|HoleType=Round|Shape=RoundedRectangle|*
%AMROUNDEDRECTD33*
21,1,0.029654,0.014764,0,0,90.0*
21,1,0.016732,0.027685,0,0,90.0*
1,1,0.012921,0.007382,0.008366*
1,1,0.012921,0.007382,-0.008366*
1,1,0.012921,-0.007382,-0.008366*
1,1,0.012921,-0.007382,0.008366*
%
%ADD33ROUNDEDRECTD33*%
%ADD34R,0.038000X0.068000*%
%ADD35R,0.043827X0.056032*%
%ADD36R,0.070990X0.078870*%
%ADD37R,0.039496X0.047370*%
%ADD38R,0.047370X0.051310*%
%ADD39R,0.033000X0.058000*%
%ADD40C,0.128000*%
%ADD41C,0.082000*%
%ADD42C,0.028000*%
%ADD43C,0.058000*%
%ADD44C,0.048000*%
G36*
X300000Y687500D02*
X240000D01*
Y702500D01*
X300000D01*
Y687500D01*
D02*
G37*
D20*
X1093946Y577402D02*
D03*
Y502598D02*
D03*
X1006054D02*
D03*
Y540000D02*
D03*
X2343946Y578268D02*
D03*
Y503464D02*
D03*
X2256054D02*
D03*
Y540866D02*
D03*
D21*
X1006054Y577402D02*
D03*
X2256054Y578268D02*
D03*
D26*
X850000Y486692D02*
D03*
X810630Y573308D02*
D03*
X889370D02*
D03*
X2090000Y486692D02*
D03*
X2050630Y573308D02*
D03*
X2129370D02*
D03*
X590000Y486692D02*
D03*
X550630Y573308D02*
D03*
X629370D02*
D03*
X1850000Y486692D02*
D03*
X1810630Y573308D02*
D03*
X1889370D02*
D03*
D30*
X811260Y210000D02*
D03*
X890000D02*
D03*
X1047480D02*
D03*
X1126220D02*
D03*
X968740D02*
D03*
X1725040D02*
D03*
X1803780D02*
D03*
X1961260D02*
D03*
X2040000D02*
D03*
X1882520D02*
D03*
D31*
X1220708Y121418D02*
D03*
X716772D02*
D03*
X2134488D02*
D03*
X1630552D02*
D03*
D32*
X994882Y660000D02*
D03*
X1105118D02*
D03*
X2244882D02*
D03*
X2355118D02*
D03*
D33*
X1067716Y730000D02*
D03*
X1032284D02*
D03*
X2317716D02*
D03*
X2282284D02*
D03*
D34*
X1525000Y870000D02*
D03*
Y650000D02*
D03*
X1375000Y870000D02*
D03*
Y650000D02*
D03*
D35*
X525630Y720000D02*
D03*
X654370D02*
D03*
X785630D02*
D03*
X914370D02*
D03*
X1785630D02*
D03*
X1914370D02*
D03*
X2025630D02*
D03*
X2154370D02*
D03*
D36*
X194880Y870000D02*
D03*
X305120D02*
D03*
D37*
X879528Y640000D02*
D03*
X820472D02*
D03*
X2119528D02*
D03*
X2060472D02*
D03*
X619528D02*
D03*
X560472D02*
D03*
X1879528D02*
D03*
X1820472D02*
D03*
D38*
X1290000Y806540D02*
D03*
Y873460D02*
D03*
X303770Y612490D02*
D03*
Y545570D02*
D03*
X230510Y610490D02*
D03*
Y543570D02*
D03*
D39*
X230000Y695000D02*
D03*
X270000D02*
D03*
X310000D02*
D03*
D40*
X2421260Y1043310D02*
D03*
X137800D02*
D03*
X2421260Y137800D02*
D03*
X137800D02*
D03*
D41*
X2229530Y1092130D02*
D03*
Y992130D02*
D03*
X2129530Y1092130D02*
D03*
Y992130D02*
D03*
X2029530Y1092130D02*
D03*
Y992130D02*
D03*
X1929530Y1092130D02*
D03*
Y992130D02*
D03*
X1829530Y1092130D02*
D03*
Y992130D02*
D03*
X1729530Y1092130D02*
D03*
Y992130D02*
D03*
X1629530Y1092130D02*
D03*
Y992130D02*
D03*
X329530Y1092130D02*
D03*
X429530D02*
D03*
X529530D02*
D03*
X629530D02*
D03*
X729530D02*
D03*
X829530D02*
D03*
X929530D02*
D03*
X1029530D02*
D03*
X1129530D02*
D03*
X1229530D02*
D03*
X1329530D02*
D03*
X1429530D02*
D03*
X1529530D02*
D03*
Y992130D02*
D03*
X1429530D02*
D03*
X1329530D02*
D03*
X1229530D02*
D03*
X1129530D02*
D03*
X1029530D02*
D03*
X929530D02*
D03*
X829530D02*
D03*
X729530D02*
D03*
X629530D02*
D03*
X529530D02*
D03*
X429530D02*
D03*
X329530D02*
D03*
D42*
X2450000Y800000D02*
D03*
X1450000Y760000D02*
D03*
X510000Y320000D02*
D03*
X1480000Y310000D02*
D03*
D43*
X370000Y470000D02*
D03*
X160000D02*
D03*
X300000D02*
D03*
X230000D02*
D03*
D44*
X2408268Y578268D02*
D03*
X2406536Y503464D02*
D03*
X1162598Y577402D02*
D03*
X1157402Y502598D02*
D03*
X1060000Y820000D02*
D03*
X970000Y740000D02*
D03*
X360000Y730000D02*
D03*
X260000Y800000D02*
D03*
X750000Y859000D02*
D03*
X2040000Y363000D02*
D03*
X1126220D02*
D03*
M02*
