G04*
G04 #@! TF.GenerationSoftware,Altium Limited,Altium Designer,23.3.1 (30)*
G04*
G04 Layer_Color=16711935*
%FSLAX26Y26*%
%MOIN*%
G70*
G04*
G04 #@! TF.SameCoordinates,CCAFB082-66E9-4EF7-9244-D7FC5D9F632E*
G04*
G04*
G04 #@! TF.FilePolarity,Negative*
G04*
G01*
G75*
%ADD40C,0.128000*%
%ADD41C,0.082000*%
%ADD42C,0.028000*%
%ADD43C,0.058000*%
%ADD44C,0.048000*%
%ADD53R,0.058000X0.033000*%
D40*
X2421260Y1043310D02*
D03*
X137800D02*
D03*
X2421260Y137800D02*
D03*
X137800D02*
D03*
D41*
X2229530Y1092130D02*
D03*
Y992130D02*
D03*
X2129530Y1092130D02*
D03*
Y992130D02*
D03*
X2029530Y1092130D02*
D03*
Y992130D02*
D03*
X1929530Y1092130D02*
D03*
Y992130D02*
D03*
X1829530Y1092130D02*
D03*
Y992130D02*
D03*
X1729530Y1092130D02*
D03*
Y992130D02*
D03*
X1629530Y1092130D02*
D03*
Y992130D02*
D03*
X329530Y1092130D02*
D03*
X429530D02*
D03*
X529530D02*
D03*
X629530D02*
D03*
X729530D02*
D03*
X829530D02*
D03*
X929530D02*
D03*
X1029530D02*
D03*
X1129530D02*
D03*
X1229530D02*
D03*
X1329530D02*
D03*
X1429530D02*
D03*
X1529530D02*
D03*
Y992130D02*
D03*
X1429530D02*
D03*
X1329530D02*
D03*
X1229530D02*
D03*
X1129530D02*
D03*
X1029530D02*
D03*
X929530D02*
D03*
X829530D02*
D03*
X729530D02*
D03*
X629530D02*
D03*
X529530D02*
D03*
X429530D02*
D03*
X329530D02*
D03*
D42*
X2450000Y800000D02*
D03*
X1450000Y760000D02*
D03*
X510000Y320000D02*
D03*
X1480000Y310000D02*
D03*
D43*
X370000Y470000D02*
D03*
X160000D02*
D03*
X300000D02*
D03*
X230000D02*
D03*
D44*
X2408268Y578268D02*
D03*
X2406536Y503464D02*
D03*
X1162598Y577402D02*
D03*
X1157402Y502598D02*
D03*
X1060000Y820000D02*
D03*
X970000Y740000D02*
D03*
X360000Y730000D02*
D03*
X260000Y800000D02*
D03*
X750000Y859000D02*
D03*
X2040000Y363000D02*
D03*
X1126220D02*
D03*
D53*
X247000Y881000D02*
D03*
Y849000D02*
D03*
M02*
