G04*
G04 #@! TF.GenerationSoftware,Altium Limited,Altium Designer,23.3.1 (30)*
G04*
G04 Layer_Physical_Order=1*
G04 Layer_Color=255*
%FSLAX26Y26*%
%MOIN*%
G70*
G04*
G04 #@! TF.SameCoordinates,CCAFB082-66E9-4EF7-9244-D7FC5D9F632E*
G04*
G04*
G04 #@! TF.FilePolarity,Positive*
G04*
G01*
G75*
%ADD15C,0.010000*%
%ADD17R,0.039370X0.216535*%
%ADD18R,0.062992X0.118110*%
%ADD19R,0.051181X0.070866*%
G04:AMPARAMS|DCode=20|XSize=52.688mil|YSize=22.754mil|CornerRadius=11.377mil|HoleSize=0mil|Usage=FLASHONLY|Rotation=0.000|XOffset=0mil|YOffset=0mil|HoleType=Round|Shape=RoundedRectangle|*
%AMROUNDEDRECTD20*
21,1,0.052688,0.000000,0,0,0.0*
21,1,0.029934,0.022754,0,0,0.0*
1,1,0.022754,0.014967,0.000000*
1,1,0.022754,-0.014967,0.000000*
1,1,0.022754,-0.014967,0.000000*
1,1,0.022754,0.014967,0.000000*
%
%ADD20ROUNDEDRECTD20*%
%ADD21R,0.052688X0.022754*%
G04:AMPARAMS|DCode=22|XSize=21.654mil|YSize=19.685mil|CornerRadius=2.461mil|HoleSize=0mil|Usage=FLASHONLY|Rotation=90.000|XOffset=0mil|YOffset=0mil|HoleType=Round|Shape=RoundedRectangle|*
%AMROUNDEDRECTD22*
21,1,0.021654,0.014764,0,0,90.0*
21,1,0.016732,0.019685,0,0,90.0*
1,1,0.004921,0.007382,0.008366*
1,1,0.004921,0.007382,-0.008366*
1,1,0.004921,-0.007382,-0.008366*
1,1,0.004921,-0.007382,0.008366*
%
%ADD22ROUNDEDRECTD22*%
%ADD23R,0.030000X0.060000*%
%ADD24R,0.035827X0.048032*%
%ADD25R,0.062990X0.070870*%
%ADD26R,0.031496X0.035433*%
%ADD27R,0.031496X0.039370*%
%ADD28R,0.039370X0.043310*%
%ADD29R,0.025000X0.050000*%
%ADD45C,0.020000*%
%ADD46C,0.050000*%
%ADD47C,0.120000*%
%ADD48C,0.074000*%
%ADD49C,0.020000*%
%ADD50C,0.050000*%
%ADD51C,0.040000*%
G36*
X2417777Y1179476D02*
X2399916Y1178071D01*
X2379097Y1173073D01*
X2359317Y1164880D01*
X2341062Y1153693D01*
X2324782Y1139788D01*
X2310877Y1123508D01*
X2299691Y1105253D01*
X2291497Y1085473D01*
X2286499Y1064654D01*
X2284819Y1043310D01*
X2286499Y1021966D01*
X2291497Y1001148D01*
X2299691Y981367D01*
X2310877Y963112D01*
X2324782Y946832D01*
X2341062Y932927D01*
X2359317Y921740D01*
X2379097Y913547D01*
X2399916Y908549D01*
X2421260Y906869D01*
X2442604Y908549D01*
X2463423Y913547D01*
X2483203Y921740D01*
X2501458Y932927D01*
X2517738Y946832D01*
X2531643Y963112D01*
X2537934Y973379D01*
X2542747Y972022D01*
Y209088D01*
X2537934Y207731D01*
X2531643Y217998D01*
X2517738Y234278D01*
X2501458Y248183D01*
X2483203Y259370D01*
X2463423Y267563D01*
X2442604Y272561D01*
X2421260Y274241D01*
X2399916Y272561D01*
X2379097Y267563D01*
X2359317Y259370D01*
X2341062Y248183D01*
X2324782Y234278D01*
X2310877Y217998D01*
X2299691Y199743D01*
X2291497Y179963D01*
X2286499Y159144D01*
X2284819Y137800D01*
X2286499Y116456D01*
X2291497Y95638D01*
X2299691Y75857D01*
X2310877Y57602D01*
X2324782Y41322D01*
X2341062Y27417D01*
X2351329Y21126D01*
X2349972Y16314D01*
X209088D01*
X207731Y21126D01*
X217998Y27417D01*
X234278Y41322D01*
X248183Y57602D01*
X259370Y75857D01*
X267563Y95638D01*
X272561Y116456D01*
X274241Y137800D01*
X272561Y159144D01*
X267563Y179963D01*
X259370Y199743D01*
X248183Y217998D01*
X234278Y234278D01*
X217998Y248183D01*
X199743Y259370D01*
X179963Y267563D01*
X159144Y272561D01*
X137800Y274241D01*
X116456Y272561D01*
X95638Y267563D01*
X75857Y259370D01*
X57602Y248183D01*
X41322Y234278D01*
X27417Y217998D01*
X21126Y207731D01*
X16314Y209088D01*
Y972022D01*
X21126Y973379D01*
X27417Y963112D01*
X41322Y946832D01*
X57602Y932927D01*
X75857Y921740D01*
X95638Y913547D01*
X116456Y908549D01*
X137800Y906869D01*
X147713Y907650D01*
X151385Y904255D01*
Y822565D01*
X231327D01*
X233539Y818081D01*
X232048Y816138D01*
X228824Y808354D01*
X227724Y800000D01*
X228824Y791646D01*
X230610Y787333D01*
X227269Y782333D01*
X205000D01*
X198367Y781014D01*
X192744Y777256D01*
X157744Y742256D01*
X153986Y736633D01*
X152667Y730000D01*
Y606050D01*
X153986Y599417D01*
X157744Y593794D01*
X198825Y552712D01*
Y509915D01*
X212667D01*
Y502869D01*
X211340Y502320D01*
X203611Y496389D01*
X197680Y488660D01*
X197500Y488224D01*
X192500D01*
X192320Y488660D01*
X186389Y496389D01*
X178660Y502320D01*
X169659Y506048D01*
X160000Y507319D01*
X150341Y506048D01*
X141340Y502320D01*
X133611Y496389D01*
X127680Y488660D01*
X123952Y479659D01*
X122681Y470000D01*
X123952Y460341D01*
X127680Y451340D01*
X133611Y443611D01*
X141340Y437680D01*
X150341Y433952D01*
X160000Y432681D01*
X169659Y433952D01*
X178660Y437680D01*
X186389Y443611D01*
X192320Y451340D01*
X192500Y451776D01*
X197500D01*
X197680Y451340D01*
X203611Y443611D01*
X211340Y437680D01*
X220341Y433952D01*
X230000Y432681D01*
X239659Y433952D01*
X248660Y437680D01*
X256389Y443611D01*
X262320Y451340D01*
X262500Y451776D01*
X267500D01*
X267680Y451340D01*
X273611Y443611D01*
X281340Y437680D01*
X290341Y433952D01*
X300000Y432681D01*
X309659Y433952D01*
X318660Y437680D01*
X326389Y443611D01*
X332320Y451340D01*
X336048Y460341D01*
X337319Y470000D01*
X336048Y479659D01*
X332320Y488660D01*
X326389Y496389D01*
X318660Y502320D01*
X317333Y502869D01*
Y511915D01*
X335455D01*
Y554712D01*
X412256Y631514D01*
X416014Y637137D01*
X417333Y643770D01*
Y752820D01*
X541786Y877274D01*
X545544Y882897D01*
X546863Y889530D01*
Y946272D01*
X554241Y949329D01*
X564477Y957183D01*
X572331Y967419D01*
X576930Y978520D01*
X579530Y978958D01*
X582130Y978520D01*
X586729Y967419D01*
X594583Y957183D01*
X604819Y949329D01*
X616738Y944391D01*
X629530Y942707D01*
X642322Y944391D01*
X654241Y949329D01*
X664477Y957183D01*
X672331Y967419D01*
X677269Y979338D01*
X678017Y985022D01*
X683060D01*
X683740Y979861D01*
X688476Y968427D01*
X696009Y958609D01*
X705827Y951076D01*
X717260Y946340D01*
X724530Y945383D01*
Y992130D01*
X734530D01*
Y945383D01*
X741799Y946340D01*
X753233Y951076D01*
X757713Y954513D01*
X762197Y952302D01*
Y942000D01*
X763516Y935367D01*
X767274Y929744D01*
X897037Y799980D01*
Y756016D01*
X884457D01*
Y683984D01*
X888529D01*
X890442Y679365D01*
X882762Y671685D01*
X851780D01*
Y608315D01*
X862195D01*
Y603024D01*
X861622D01*
Y547333D01*
X860000D01*
X853367Y546014D01*
X847744Y542256D01*
X837744Y532256D01*
X833986Y526633D01*
X832667Y520000D01*
Y516409D01*
X822252D01*
Y489793D01*
X817633Y487880D01*
X806564Y498948D01*
X800941Y502706D01*
X794308Y504025D01*
X617748D01*
Y516409D01*
X562252D01*
Y456976D01*
X617748D01*
Y469359D01*
X787128D01*
X872667Y383820D01*
Y330268D01*
X858315D01*
Y89732D01*
X921685D01*
Y330268D01*
X907333D01*
Y391000D01*
X907073Y392306D01*
X911068Y397850D01*
X912216Y397995D01*
X951407Y358804D01*
Y330268D01*
X937055D01*
Y89732D01*
X1000425D01*
Y330268D01*
X986073D01*
Y365984D01*
X984754Y372617D01*
X980996Y378240D01*
X877748Y481489D01*
Y512667D01*
X879370D01*
X886003Y513986D01*
X891626Y517744D01*
X901626Y527744D01*
X905384Y533367D01*
X906703Y540000D01*
Y543591D01*
X917118D01*
Y603024D01*
X896861D01*
Y608315D01*
X907276D01*
Y647173D01*
X926626Y666524D01*
X930384Y672147D01*
X931703Y678780D01*
Y683984D01*
X944283D01*
Y713096D01*
X948604Y715226D01*
X952667Y712413D01*
Y705000D01*
X953986Y698367D01*
X956958Y693919D01*
Y680591D01*
X957292Y678916D01*
Y612567D01*
X977549D01*
Y600779D01*
X967710D01*
Y554025D01*
X969445D01*
X971802Y549615D01*
X970950Y548341D01*
X970286Y545000D01*
X1041822D01*
X1041158Y548341D01*
X1040306Y549615D01*
X1042663Y554025D01*
X1044398D01*
Y600779D01*
X1012215D01*
Y612567D01*
X1032473D01*
Y679850D01*
X1044540Y691918D01*
X1048298Y697541D01*
X1049617Y704174D01*
Y707795D01*
X1054617Y710468D01*
X1055472Y709896D01*
X1060334Y708929D01*
X1065976D01*
X1069527Y705433D01*
X1069527Y703929D01*
Y665000D01*
X1100118D01*
Y705433D01*
X1081595D01*
X1081076Y706849D01*
X1080763Y710433D01*
X1084082Y712650D01*
X1086835Y716772D01*
X1087803Y721634D01*
Y725000D01*
X1067716D01*
Y735000D01*
X1087803D01*
Y738366D01*
X1087716Y738802D01*
X1090888Y742667D01*
X1173820D01*
X1398744Y517744D01*
X1404367Y513986D01*
X1411000Y512667D01*
X1822252D01*
Y456976D01*
X1832667D01*
Y417180D01*
X1791524Y376036D01*
X1787766Y370413D01*
X1786447Y363780D01*
Y330268D01*
X1772095D01*
Y89732D01*
X1835465D01*
Y330268D01*
X1821113D01*
Y356600D01*
X1862256Y397743D01*
X1862256Y397744D01*
X1866014Y403367D01*
X1867333Y410000D01*
X1867333Y410000D01*
Y456976D01*
X1877748D01*
Y512667D01*
X2062252D01*
Y504025D01*
X2016693D01*
X2016692Y504025D01*
X2010059Y502706D01*
X2004436Y498948D01*
X1870264Y364776D01*
X1866506Y359153D01*
X1865187Y352520D01*
Y330268D01*
X1850835D01*
Y89732D01*
X1914205D01*
Y330268D01*
X1899853D01*
Y345340D01*
X2023872Y469359D01*
X2062252D01*
Y456976D01*
X2117748D01*
Y512667D01*
X2147732D01*
X2154365Y513986D01*
X2159988Y517744D01*
X2203180Y560935D01*
X2217710D01*
Y554891D01*
X2219445D01*
X2221802Y550481D01*
X2220950Y549207D01*
X2220286Y545866D01*
X2291822D01*
X2291158Y549207D01*
X2290306Y550481D01*
X2292663Y554891D01*
X2294398D01*
Y601645D01*
X2273387D01*
Y612567D01*
X2282472D01*
Y679849D01*
X2294540Y691917D01*
X2298298Y697540D01*
X2299617Y704173D01*
Y707795D01*
X2304617Y710468D01*
X2305472Y709896D01*
X2310334Y708929D01*
X2315976D01*
X2319527Y705433D01*
X2319528Y703929D01*
Y665000D01*
X2350118D01*
Y705433D01*
X2331595D01*
X2331076Y706849D01*
X2330763Y710433D01*
X2334081Y712650D01*
X2336836Y716772D01*
X2337803Y721634D01*
Y725000D01*
X2317716D01*
Y730000D01*
X2312716D01*
Y751071D01*
X2310334D01*
X2305472Y750104D01*
X2305019Y749801D01*
X2300091Y748792D01*
X2295308Y751988D01*
X2289666Y753110D01*
X2274902D01*
X2269260Y751988D01*
X2264477Y748792D01*
X2261280Y744008D01*
X2260158Y738366D01*
Y721634D01*
X2261280Y715992D01*
X2264477Y711208D01*
X2264506Y710908D01*
X2261031Y707433D01*
X2207291D01*
Y612567D01*
X2238721D01*
Y601645D01*
X2217710D01*
Y595601D01*
X2196001D01*
X2196000Y595601D01*
X2189367Y594282D01*
X2183744Y590524D01*
X2161737Y568518D01*
X2157118Y570432D01*
Y603024D01*
X2146703D01*
Y608315D01*
X2147276D01*
Y647173D01*
X2166626Y666524D01*
X2170384Y672147D01*
X2171703Y678780D01*
Y683984D01*
X2184283D01*
Y756016D01*
X2171703D01*
Y880000D01*
X2170384Y886633D01*
X2166626Y892256D01*
X2119959Y938924D01*
X2122294Y943660D01*
X2129530Y942707D01*
X2142322Y944391D01*
X2154241Y949329D01*
X2164477Y957183D01*
X2172331Y967419D01*
X2177269Y979338D01*
X2178017Y985022D01*
X2183060D01*
X2183740Y979861D01*
X2188476Y968427D01*
X2196009Y958609D01*
X2205827Y951076D01*
X2217260Y946340D01*
X2224530Y945383D01*
Y992130D01*
X2229530D01*
Y997130D01*
X2276277D01*
X2275320Y1004399D01*
X2270584Y1015833D01*
X2263051Y1025651D01*
X2253233Y1033185D01*
X2241800Y1037920D01*
X2236638Y1038600D01*
Y1043643D01*
X2242322Y1044391D01*
X2254241Y1049329D01*
X2264477Y1057183D01*
X2272331Y1067419D01*
X2277269Y1079338D01*
X2278953Y1092130D01*
X2277269Y1104922D01*
X2272331Y1116841D01*
X2264477Y1127077D01*
X2254241Y1134931D01*
X2242322Y1139869D01*
X2229530Y1141553D01*
X2216738Y1139869D01*
X2204819Y1134931D01*
X2194583Y1127077D01*
X2186729Y1116841D01*
X2182130Y1105740D01*
X2179530Y1105302D01*
X2176930Y1105740D01*
X2172331Y1116841D01*
X2164477Y1127077D01*
X2154241Y1134931D01*
X2142322Y1139869D01*
X2129530Y1141553D01*
X2116738Y1139869D01*
X2104819Y1134931D01*
X2094583Y1127077D01*
X2086729Y1116841D01*
X2082130Y1105740D01*
X2079530Y1105302D01*
X2076930Y1105740D01*
X2072331Y1116841D01*
X2064477Y1127077D01*
X2054241Y1134931D01*
X2042322Y1139869D01*
X2029530Y1141553D01*
X2016738Y1139869D01*
X2004819Y1134931D01*
X1994583Y1127077D01*
X1986729Y1116841D01*
X1981791Y1104922D01*
X1981043Y1099238D01*
X1976000D01*
X1975320Y1104399D01*
X1970584Y1115833D01*
X1963051Y1125651D01*
X1953233Y1133185D01*
X1941800Y1137920D01*
X1934530Y1138877D01*
Y1092130D01*
X1924530D01*
Y1138877D01*
X1917261Y1137920D01*
X1905827Y1133185D01*
X1896009Y1125651D01*
X1888476Y1115833D01*
X1883740Y1104399D01*
X1883060Y1099238D01*
X1878017D01*
X1877269Y1104922D01*
X1872331Y1116841D01*
X1864477Y1127077D01*
X1854241Y1134931D01*
X1842322Y1139869D01*
X1829530Y1141553D01*
X1816738Y1139869D01*
X1809360Y1136813D01*
X1776916Y1169256D01*
X1771293Y1173014D01*
X1764660Y1174333D01*
X800000D01*
X800000Y1174333D01*
X793367Y1173014D01*
X787744Y1169256D01*
X787744Y1169256D01*
X767274Y1148786D01*
X763516Y1143163D01*
X762197Y1136530D01*
Y1134479D01*
X757713Y1132268D01*
X754241Y1134931D01*
X742322Y1139869D01*
X729530Y1141553D01*
X716738Y1139869D01*
X704819Y1134931D01*
X694583Y1127077D01*
X686729Y1116841D01*
X682130Y1105740D01*
X679530Y1105302D01*
X676930Y1105740D01*
X672331Y1116841D01*
X664477Y1127077D01*
X654241Y1134931D01*
X642322Y1139869D01*
X629530Y1141553D01*
X616738Y1139869D01*
X604819Y1134931D01*
X594583Y1127077D01*
X586729Y1116841D01*
X581791Y1104922D01*
X581043Y1099238D01*
X576000D01*
X575320Y1104399D01*
X570585Y1115833D01*
X563051Y1125651D01*
X553233Y1133185D01*
X541799Y1137920D01*
X534530Y1138877D01*
Y1092130D01*
X524530D01*
Y1138877D01*
X517260Y1137920D01*
X505827Y1133185D01*
X496009Y1125651D01*
X488476Y1115833D01*
X483740Y1104399D01*
X483060Y1099238D01*
X478017D01*
X477269Y1104922D01*
X472331Y1116841D01*
X464477Y1127077D01*
X454241Y1134931D01*
X442322Y1139869D01*
X429530Y1141553D01*
X416738Y1139869D01*
X404819Y1134931D01*
X397674Y1129449D01*
X361386D01*
X354241Y1134931D01*
X342322Y1139869D01*
X329530Y1141553D01*
X316738Y1139869D01*
X304819Y1134931D01*
X294583Y1127077D01*
X286729Y1116841D01*
X281791Y1104922D01*
X280107Y1092130D01*
X281791Y1079338D01*
X286729Y1067419D01*
X290457Y1062559D01*
X278242Y1050344D01*
X273551Y1052075D01*
X272561Y1064654D01*
X267563Y1085473D01*
X259370Y1105253D01*
X248183Y1123508D01*
X234278Y1139788D01*
X217998Y1153693D01*
X199743Y1164880D01*
X179963Y1173073D01*
X159144Y1178071D01*
X141283Y1179476D01*
X141479Y1184476D01*
X2417581D01*
X2417777Y1179476D01*
D02*
G37*
G36*
X1534530Y945383D02*
X1541800Y946340D01*
X1553233Y951076D01*
X1563051Y958609D01*
X1570584Y968427D01*
X1575320Y979861D01*
X1576000Y985022D01*
X1581043D01*
X1581791Y979338D01*
X1586729Y967419D01*
X1594583Y957183D01*
X1604819Y949329D01*
X1616738Y944391D01*
X1629530Y942707D01*
X1642322Y944391D01*
X1654241Y949329D01*
X1664477Y957183D01*
X1672331Y967419D01*
X1676930Y978520D01*
X1679530Y978958D01*
X1682130Y978520D01*
X1686729Y967419D01*
X1694583Y957183D01*
X1704819Y949329D01*
X1716738Y944391D01*
X1729530Y942707D01*
X1742322Y944391D01*
X1754241Y949329D01*
X1764477Y957183D01*
X1772331Y967419D01*
X1776930Y978520D01*
X1779530Y978958D01*
X1782130Y978520D01*
X1786729Y967419D01*
X1794583Y957183D01*
X1804819Y949329D01*
X1812197Y946272D01*
Y897840D01*
X1813516Y891207D01*
X1817274Y885584D01*
X1897037Y805820D01*
Y756016D01*
X1884457D01*
Y683984D01*
X1888529D01*
X1890442Y679365D01*
X1882762Y671685D01*
X1851780D01*
Y608315D01*
X1862195D01*
Y603024D01*
X1861622D01*
Y547333D01*
X1836378D01*
Y568308D01*
X1810630D01*
Y573308D01*
D01*
Y568308D01*
X1784882D01*
Y547333D01*
X1418180D01*
X1362132Y603381D01*
X1364045Y608000D01*
X1402000D01*
Y692000D01*
X1348000D01*
Y624045D01*
X1343381Y622132D01*
X1218846Y746667D01*
X1220917Y751667D01*
X1320000D01*
X1326633Y752986D01*
X1332256Y756744D01*
X1387256Y811744D01*
X1387256Y811744D01*
X1391014Y817367D01*
X1392333Y824000D01*
Y828000D01*
X1402000D01*
Y912000D01*
X1348000D01*
Y887333D01*
X1321685D01*
Y907115D01*
X1258315D01*
Y869270D01*
X1253696Y867357D01*
X1219266Y901786D01*
X1213643Y905544D01*
X1207010Y906863D01*
X1146863D01*
Y946272D01*
X1154241Y949329D01*
X1164477Y957183D01*
X1172331Y967419D01*
X1176930Y978520D01*
X1179530Y978958D01*
X1182130Y978520D01*
X1186729Y967419D01*
X1194583Y957183D01*
X1204819Y949329D01*
X1216738Y944391D01*
X1229530Y942707D01*
X1242322Y944391D01*
X1254241Y949329D01*
X1264477Y957183D01*
X1272331Y967419D01*
X1276930Y978520D01*
X1279530Y978958D01*
X1282130Y978520D01*
X1286729Y967419D01*
X1294583Y957183D01*
X1304819Y949329D01*
X1316738Y944391D01*
X1329530Y942707D01*
X1342322Y944391D01*
X1354241Y949329D01*
X1364477Y957183D01*
X1372331Y967419D01*
X1376930Y978520D01*
X1379530Y978958D01*
X1382130Y978520D01*
X1386729Y967419D01*
X1394583Y957183D01*
X1404819Y949329D01*
X1416738Y944391D01*
X1429530Y942707D01*
X1442322Y944391D01*
X1454241Y949329D01*
X1464477Y957183D01*
X1472331Y967419D01*
X1477269Y979338D01*
X1478017Y985022D01*
X1483060D01*
X1483740Y979861D01*
X1488476Y968427D01*
X1496009Y958609D01*
X1505827Y951076D01*
X1517261Y946340D01*
X1524530Y945383D01*
Y992130D01*
X1534530D01*
Y945383D01*
D02*
G37*
G36*
X298000Y690000D02*
X282000D01*
Y700000D01*
X298000D01*
Y690000D01*
D02*
G37*
G36*
X258000D02*
X242000D01*
Y700000D01*
X258000D01*
Y690000D01*
D02*
G37*
G36*
X1866031Y952073D02*
X1867274Y950214D01*
X1887744Y929744D01*
X1887744Y929744D01*
X1893367Y925986D01*
X1900000Y924667D01*
X1900001Y924667D01*
X2085190D01*
X2137037Y872820D01*
Y756016D01*
X2124457D01*
Y683984D01*
X2128529D01*
X2130442Y679365D01*
X2122762Y671685D01*
X2091780D01*
Y608315D01*
X2112037D01*
Y603024D01*
X2101622D01*
Y547333D01*
X2076378D01*
Y568308D01*
X2050630D01*
X2024882D01*
Y547333D01*
X1917118D01*
Y603024D01*
X1896861D01*
Y608315D01*
X1907276D01*
Y647173D01*
X1926626Y666524D01*
X1930384Y672147D01*
X1931703Y678780D01*
Y683984D01*
X1944283D01*
Y756016D01*
X1931703D01*
Y813000D01*
X1930384Y819633D01*
X1926626Y825256D01*
X1846863Y905020D01*
Y946272D01*
X1854241Y949329D01*
X1859325Y953230D01*
X1866031Y952073D01*
D02*
G37*
%LPC*%
G36*
X2276277Y987130D02*
X2234530D01*
Y945383D01*
X2241800Y946340D01*
X2253233Y951076D01*
X2263051Y958609D01*
X2270584Y968427D01*
X2275320Y979861D01*
X2276277Y987130D01*
D02*
G37*
G36*
X750000Y891276D02*
X741646Y890176D01*
X733862Y886952D01*
X727177Y881823D01*
X722048Y875138D01*
X718824Y867354D01*
X717724Y859000D01*
X718627Y852140D01*
X642114Y775626D01*
X638356Y770003D01*
X637037Y763370D01*
Y756016D01*
X624457D01*
Y683984D01*
X628529D01*
X630442Y679365D01*
X622762Y671685D01*
X591780D01*
Y608315D01*
X602195D01*
Y603024D01*
X601622D01*
Y543591D01*
X657118D01*
Y603024D01*
X636861D01*
Y608315D01*
X647276D01*
Y647173D01*
X666626Y666524D01*
X670384Y672147D01*
X671703Y678780D01*
Y683984D01*
X684283D01*
Y756016D01*
X678599D01*
X676528Y761016D01*
X743140Y827627D01*
X750000Y826724D01*
X758354Y827824D01*
X766138Y831048D01*
X772823Y836177D01*
X777952Y842862D01*
X781176Y850646D01*
X782276Y859000D01*
X781176Y867354D01*
X777952Y875138D01*
X772823Y881823D01*
X766138Y886952D01*
X758354Y890176D01*
X750000Y891276D01*
D02*
G37*
G36*
X2325098Y751071D02*
X2322716D01*
Y735000D01*
X2337803D01*
Y738366D01*
X2336836Y743228D01*
X2334081Y747350D01*
X2329960Y750104D01*
X2325098Y751071D01*
D02*
G37*
G36*
X813543Y754016D02*
X790630D01*
Y725000D01*
X813543D01*
Y754016D01*
D02*
G37*
G36*
X780630D02*
X757717D01*
Y725000D01*
X780630D01*
Y754016D01*
D02*
G37*
G36*
X553543D02*
X530630D01*
Y725000D01*
X553543D01*
Y754016D01*
D02*
G37*
G36*
X520630D02*
X497717D01*
Y725000D01*
X520630D01*
Y754016D01*
D02*
G37*
G36*
X813543Y715000D02*
X790630D01*
Y685984D01*
X813543D01*
Y715000D01*
D02*
G37*
G36*
X780630D02*
X757717D01*
Y685984D01*
X780630D01*
Y715000D01*
D02*
G37*
G36*
X553543D02*
X530630D01*
Y685984D01*
X553543D01*
Y715000D01*
D02*
G37*
G36*
X520630D02*
X497717D01*
Y685984D01*
X520630D01*
Y715000D01*
D02*
G37*
G36*
X2390709Y705433D02*
X2360118D01*
Y665000D01*
X2390709D01*
Y705433D01*
D02*
G37*
G36*
X1140708D02*
X1110118D01*
Y665000D01*
X1140708D01*
Y705433D01*
D02*
G37*
G36*
X846220Y669685D02*
X825472D01*
Y645000D01*
X846220D01*
Y669685D01*
D02*
G37*
G36*
X586220D02*
X565472D01*
Y645000D01*
X586220D01*
Y669685D01*
D02*
G37*
G36*
X815472D02*
X794724D01*
Y645000D01*
X815472D01*
Y669685D01*
D02*
G37*
G36*
X555472D02*
X534724D01*
Y645000D01*
X555472D01*
Y669685D01*
D02*
G37*
G36*
X2390709Y655000D02*
X2360118D01*
Y614567D01*
X2390709D01*
Y655000D01*
D02*
G37*
G36*
X2350118D02*
X2319528D01*
Y614567D01*
X2350118D01*
Y655000D01*
D02*
G37*
G36*
X1140708D02*
X1110118D01*
Y614567D01*
X1140708D01*
Y655000D01*
D02*
G37*
G36*
X1100118D02*
X1069527D01*
Y614567D01*
X1100118D01*
Y655000D01*
D02*
G37*
G36*
X846220Y635000D02*
X825472D01*
Y610315D01*
X846220D01*
Y635000D01*
D02*
G37*
G36*
X815472D02*
X794724D01*
Y610315D01*
X815472D01*
Y635000D01*
D02*
G37*
G36*
X586220D02*
X565472D01*
Y610315D01*
X586220D01*
Y635000D01*
D02*
G37*
G36*
X555472D02*
X534724D01*
Y610315D01*
X555472D01*
Y635000D01*
D02*
G37*
G36*
X2408268Y610544D02*
X2399914Y609444D01*
X2392130Y606220D01*
X2385445Y601091D01*
X2381233Y595601D01*
X2375050D01*
X2368034Y600289D01*
X2358913Y602103D01*
X2328979D01*
X2319858Y600289D01*
X2312125Y595122D01*
X2306958Y587389D01*
X2305144Y578268D01*
X2306958Y569147D01*
X2312125Y561414D01*
X2319858Y556247D01*
X2328979Y554433D01*
X2358913D01*
X2368034Y556247D01*
X2375050Y560935D01*
X2381233D01*
X2385445Y555445D01*
X2392130Y550316D01*
X2399914Y547092D01*
X2408268Y545992D01*
X2416622Y547092D01*
X2424406Y550316D01*
X2431091Y555445D01*
X2436220Y562130D01*
X2439444Y569914D01*
X2440544Y578268D01*
X2439444Y586622D01*
X2436220Y594406D01*
X2431091Y601091D01*
X2424406Y606220D01*
X2416622Y609444D01*
X2408268Y610544D01*
D02*
G37*
G36*
X1162598Y609678D02*
X1154244Y608578D01*
X1146460Y605354D01*
X1139775Y600225D01*
X1135563Y594735D01*
X1125050D01*
X1118034Y599423D01*
X1108913Y601237D01*
X1078979D01*
X1069858Y599423D01*
X1062125Y594256D01*
X1056958Y586523D01*
X1055144Y577402D01*
X1056958Y568281D01*
X1062125Y560548D01*
X1069858Y555381D01*
X1078979Y553567D01*
X1108913D01*
X1118034Y555381D01*
X1125050Y560069D01*
X1135563D01*
X1139775Y554579D01*
X1146460Y549450D01*
X1154244Y546226D01*
X1162598Y545126D01*
X1170952Y546226D01*
X1178736Y549450D01*
X1185421Y554579D01*
X1190550Y561264D01*
X1193774Y569048D01*
X1194874Y577402D01*
X1193774Y585756D01*
X1190550Y593540D01*
X1185421Y600225D01*
X1178736Y605354D01*
X1170952Y608578D01*
X1162598Y609678D01*
D02*
G37*
G36*
X836378Y601024D02*
X815630D01*
Y578308D01*
X836378D01*
Y601024D01*
D02*
G37*
G36*
X576378D02*
X555630D01*
Y578308D01*
X576378D01*
Y601024D01*
D02*
G37*
G36*
X805630D02*
X784882D01*
Y578308D01*
X805630D01*
Y601024D01*
D02*
G37*
G36*
X545630D02*
X524882D01*
Y578308D01*
X545630D01*
Y601024D01*
D02*
G37*
G36*
X836378Y568308D02*
X815630D01*
Y545591D01*
X836378D01*
Y568308D01*
D02*
G37*
G36*
X805630D02*
X784882D01*
Y545591D01*
X805630D01*
Y568308D01*
D02*
G37*
G36*
X576378D02*
X555630D01*
Y545591D01*
X576378D01*
Y568308D01*
D02*
G37*
G36*
X545630D02*
X524882D01*
Y545591D01*
X545630D01*
Y568308D01*
D02*
G37*
G36*
X2406536Y535740D02*
X2398182Y534640D01*
X2390398Y531416D01*
X2383713Y526287D01*
X2379501Y520797D01*
X2375050D01*
X2368034Y525485D01*
X2358913Y527299D01*
X2328979D01*
X2319858Y525485D01*
X2312125Y520318D01*
X2306958Y512585D01*
X2305144Y503464D01*
X2306958Y494343D01*
X2312125Y486610D01*
X2319858Y481443D01*
X2328979Y479629D01*
X2358913D01*
X2368034Y481443D01*
X2375050Y486131D01*
X2379501D01*
X2383713Y480641D01*
X2390398Y475512D01*
X2398182Y472288D01*
X2406536Y471188D01*
X2414890Y472288D01*
X2422674Y475512D01*
X2429359Y480641D01*
X2434488Y487326D01*
X2437712Y495110D01*
X2438812Y503464D01*
X2437712Y511818D01*
X2434488Y519602D01*
X2429359Y526287D01*
X2422674Y531416D01*
X2414890Y534640D01*
X2406536Y535740D01*
D02*
G37*
G36*
X1157402Y534874D02*
X1149048Y533774D01*
X1141264Y530550D01*
X1134579Y525421D01*
X1130367Y519931D01*
X1125050D01*
X1118034Y524619D01*
X1108913Y526433D01*
X1078979D01*
X1069858Y524619D01*
X1062125Y519452D01*
X1056958Y511719D01*
X1055144Y502598D01*
X1056958Y493477D01*
X1062125Y485744D01*
X1069858Y480577D01*
X1078979Y478763D01*
X1108913D01*
X1118034Y480577D01*
X1125050Y485265D01*
X1130367D01*
X1134579Y479775D01*
X1141264Y474646D01*
X1149048Y471422D01*
X1157402Y470322D01*
X1165756Y471422D01*
X1173540Y474646D01*
X1180225Y479775D01*
X1185354Y486460D01*
X1188578Y494244D01*
X1189678Y502598D01*
X1188578Y510952D01*
X1185354Y518736D01*
X1180225Y525421D01*
X1173540Y530550D01*
X1165756Y533774D01*
X1157402Y534874D01*
D02*
G37*
G36*
X1754725Y328268D02*
X1730040D01*
Y215000D01*
X1754725D01*
Y328268D01*
D02*
G37*
G36*
X1720040D02*
X1695355D01*
Y215000D01*
X1720040D01*
Y328268D01*
D02*
G37*
G36*
X840945D02*
X816260D01*
Y215000D01*
X840945D01*
Y328268D01*
D02*
G37*
G36*
X806260D02*
X781575D01*
Y215000D01*
X806260D01*
Y328268D01*
D02*
G37*
G36*
X1754725Y205000D02*
X1730040D01*
Y91732D01*
X1754725D01*
Y205000D01*
D02*
G37*
G36*
X1720040D02*
X1695355D01*
Y91732D01*
X1720040D01*
Y205000D01*
D02*
G37*
G36*
X840945D02*
X816260D01*
Y91732D01*
X840945D01*
Y205000D01*
D02*
G37*
G36*
X806260D02*
X781575D01*
Y91732D01*
X806260D01*
Y205000D01*
D02*
G37*
G36*
X2291822Y535866D02*
X2220286D01*
X2220950Y532525D01*
X2225675Y525454D01*
Y521281D01*
X2224233Y520318D01*
X2219066Y512585D01*
X2217420Y504308D01*
X2140444Y427333D01*
X2010000D01*
X2003367Y426014D01*
X1997744Y422256D01*
X1949004Y373516D01*
X1945246Y367893D01*
X1943927Y361260D01*
Y330268D01*
X1929575D01*
Y89732D01*
X1992945D01*
Y330268D01*
X1978593D01*
Y354080D01*
X2012655Y388143D01*
X2016423Y384839D01*
X2012048Y379138D01*
X2008824Y371354D01*
X2007724Y363000D01*
X2008824Y354646D01*
X2012048Y346862D01*
X2017177Y340177D01*
X2022667Y335965D01*
Y330268D01*
X2008315D01*
Y89732D01*
X2071685D01*
Y330268D01*
X2057333D01*
Y335965D01*
X2062823Y340177D01*
X2067952Y346862D01*
X2071176Y354646D01*
X2072276Y363000D01*
X2071176Y371354D01*
X2067952Y379138D01*
X2062823Y385823D01*
X2060419Y387667D01*
X2062116Y392667D01*
X2147624D01*
X2154257Y393986D01*
X2159880Y397744D01*
X2241765Y479629D01*
X2271021D01*
X2280142Y481443D01*
X2287875Y486610D01*
X2293042Y494343D01*
X2294856Y503464D01*
X2293042Y512585D01*
X2287875Y520318D01*
X2286433Y521281D01*
Y525454D01*
X2291158Y532525D01*
X2291822Y535866D01*
D02*
G37*
G36*
X1126220Y395276D02*
X1117866Y394176D01*
X1110082Y390952D01*
X1103397Y385823D01*
X1098268Y379138D01*
X1095044Y371354D01*
X1093944Y363000D01*
X1095044Y354646D01*
X1098268Y346862D01*
X1103397Y340177D01*
X1108887Y335965D01*
Y330268D01*
X1094535D01*
Y89732D01*
X1157905D01*
Y330268D01*
X1143553D01*
Y335965D01*
X1149043Y340177D01*
X1154172Y346862D01*
X1157396Y354646D01*
X1158496Y363000D01*
X1157396Y371354D01*
X1154172Y379138D01*
X1149043Y385823D01*
X1142358Y390952D01*
X1134574Y394176D01*
X1126220Y395276D01*
D02*
G37*
G36*
X1041822Y535000D02*
X970286D01*
X970950Y531659D01*
X975675Y524588D01*
Y520415D01*
X974233Y519452D01*
X969066Y511719D01*
X967252Y502598D01*
X969066Y493477D01*
X974233Y485744D01*
X981966Y480577D01*
X988721Y479233D01*
Y403946D01*
X990040Y397313D01*
X993798Y391690D01*
X1030147Y355340D01*
Y330268D01*
X1015795D01*
Y89732D01*
X1079165D01*
Y330268D01*
X1064813D01*
Y362520D01*
X1063494Y369153D01*
X1059736Y374776D01*
X1023387Y411126D01*
Y479233D01*
X1030142Y480577D01*
X1037875Y485744D01*
X1043042Y493477D01*
X1044856Y502598D01*
X1043042Y511719D01*
X1037875Y519452D01*
X1036433Y520415D01*
Y524588D01*
X1041158Y531659D01*
X1041822Y535000D01*
D02*
G37*
G36*
X2177984Y192473D02*
X2090992D01*
Y50363D01*
X2177984D01*
Y192473D01*
D02*
G37*
G36*
X1674048D02*
X1587056D01*
Y50363D01*
X1674048D01*
Y192473D01*
D02*
G37*
G36*
X1264204D02*
X1177212D01*
Y50363D01*
X1264204D01*
Y192473D01*
D02*
G37*
G36*
X760268D02*
X673276D01*
Y50363D01*
X760268D01*
Y192473D01*
D02*
G37*
G36*
X1550000Y910000D02*
X1530000D01*
Y875000D01*
X1550000D01*
Y910000D01*
D02*
G37*
G36*
X1520000D02*
X1500000D01*
Y875000D01*
X1520000D01*
Y910000D01*
D02*
G37*
G36*
X1550000Y865000D02*
X1530000D01*
Y830000D01*
X1550000D01*
Y865000D01*
D02*
G37*
G36*
X1520000D02*
X1500000D01*
Y830000D01*
X1520000D01*
Y865000D01*
D02*
G37*
G36*
X1813543Y754016D02*
X1790630D01*
Y725000D01*
X1813543D01*
Y754016D01*
D02*
G37*
G36*
X1780630D02*
X1757717D01*
Y725000D01*
X1780630D01*
Y754016D01*
D02*
G37*
G36*
X1813543Y715000D02*
X1790630D01*
Y685984D01*
X1813543D01*
Y715000D01*
D02*
G37*
G36*
X1780630D02*
X1757717D01*
Y685984D01*
X1780630D01*
Y715000D01*
D02*
G37*
G36*
X1846220Y669685D02*
X1825472D01*
Y645000D01*
X1846220D01*
Y669685D01*
D02*
G37*
G36*
X1815472D02*
X1794724D01*
Y645000D01*
X1815472D01*
Y669685D01*
D02*
G37*
G36*
X1846220Y635000D02*
X1825472D01*
Y610315D01*
X1846220D01*
Y635000D01*
D02*
G37*
G36*
X1815472D02*
X1794724D01*
Y610315D01*
X1815472D01*
Y635000D01*
D02*
G37*
G36*
X1552000Y692000D02*
X1498000D01*
Y608000D01*
X1552000D01*
Y692000D01*
D02*
G37*
G36*
X1836378Y601024D02*
X1815630D01*
Y578308D01*
X1836378D01*
Y601024D01*
D02*
G37*
G36*
X1805630D02*
X1784882D01*
Y578308D01*
X1805630D01*
Y601024D01*
D02*
G37*
G36*
X2053543Y754016D02*
X2030630D01*
Y725000D01*
X2053543D01*
Y754016D01*
D02*
G37*
G36*
X2020630D02*
X1997717D01*
Y725000D01*
X2020630D01*
Y754016D01*
D02*
G37*
G36*
X2053543Y715000D02*
X2030630D01*
Y685984D01*
X2053543D01*
Y715000D01*
D02*
G37*
G36*
X2020630D02*
X1997717D01*
Y685984D01*
X2020630D01*
Y715000D01*
D02*
G37*
G36*
X2086220Y669685D02*
X2065472D01*
Y645000D01*
X2086220D01*
Y669685D01*
D02*
G37*
G36*
X2055472D02*
X2034724D01*
Y645000D01*
X2055472D01*
Y669685D01*
D02*
G37*
G36*
X2086220Y635000D02*
X2065472D01*
Y610315D01*
X2086220D01*
Y635000D01*
D02*
G37*
G36*
X2055472D02*
X2034724D01*
Y610315D01*
X2055472D01*
Y635000D01*
D02*
G37*
G36*
X2076378Y601024D02*
X2055630D01*
Y578308D01*
X2076378D01*
Y601024D01*
D02*
G37*
G36*
X2045630D02*
X2024882D01*
Y578308D01*
X2045630D01*
Y601024D01*
D02*
G37*
%LPD*%
D15*
X2256054Y578268D02*
Y648828D01*
X2244882Y660000D02*
X2256054Y648828D01*
X2265473Y690433D02*
X2268544D01*
X2244882Y669842D02*
X2265473Y690433D01*
X2282284Y704173D02*
Y730000D01*
X2268544Y690433D02*
X2282284Y704173D01*
X2244882Y660000D02*
Y669842D01*
X2282284Y730000D02*
Y730984D01*
X300000Y470000D02*
Y541800D01*
X303770Y545570D01*
X230000Y543060D02*
X230510Y543570D01*
X230000Y470000D02*
Y543060D01*
X2343946Y503464D02*
X2406536D01*
X2343946Y578268D02*
X2408268D01*
X1093946Y502598D02*
X1157402D01*
X1093946Y577402D02*
X1162598D01*
X1273345Y823195D02*
X1275315D01*
X1290000Y808510D01*
Y806540D02*
Y808510D01*
X1129530Y889530D02*
X1207010D01*
X1273345Y823195D01*
X1129530Y889530D02*
Y992130D01*
X1060000Y820000D02*
X1129530Y889530D01*
X974291Y680591D02*
Y700709D01*
X970000Y705000D02*
X974291Y700709D01*
Y680591D02*
X994882Y660000D01*
X970000Y705000D02*
Y740000D01*
X355000Y735000D02*
X360000Y730000D01*
X280858Y735000D02*
X355000D01*
X400000Y760000D02*
X529530Y889530D01*
X400000Y643770D02*
Y760000D01*
X303770Y547540D02*
X400000Y643770D01*
X270000Y724142D02*
X280858Y735000D01*
X270000Y695000D02*
Y724142D01*
X303770Y650630D02*
Y688770D01*
Y612490D02*
Y650630D01*
X529530Y889530D02*
Y992130D01*
X303770Y545570D02*
Y547540D01*
X170000Y606050D02*
X230510Y545540D01*
Y543570D02*
Y545540D01*
X170000Y606050D02*
Y730000D01*
X205000Y765000D01*
X345000D01*
X429530Y849530D01*
Y992130D01*
X2196000Y578268D02*
X2256054D01*
X2147732Y530000D02*
X2196000Y578268D01*
X1411000Y530000D02*
X2147732D01*
X1181000Y760000D02*
X1411000Y530000D01*
X1042284Y760000D02*
X1181000D01*
X1032284Y730000D02*
X1042284Y760000D01*
X590000Y486692D02*
X794308D01*
X890000Y391000D01*
Y210000D02*
Y391000D01*
X850000Y484724D02*
Y486692D01*
Y484724D02*
X968740Y365984D01*
Y210000D02*
Y365984D01*
X889370Y540000D02*
Y573308D01*
X879370Y530000D02*
X889370Y540000D01*
X860000Y530000D02*
X879370D01*
X850000Y520000D02*
X860000Y530000D01*
X850000Y486692D02*
Y520000D01*
X994882Y660000D02*
Y666772D01*
X1032284Y704174D01*
Y730000D01*
X994882Y583780D02*
Y660000D01*
Y583780D02*
X1001260Y577402D01*
X1006054D01*
X303770Y688770D02*
X310000Y695000D01*
X230000Y611010D02*
Y695000D01*
Y611010D02*
X230510Y610490D01*
X260000Y800000D02*
Y815000D01*
X305120Y860120D01*
Y870000D01*
X1375000Y824000D02*
Y870000D01*
X1320000Y769000D02*
X1375000Y824000D01*
X1216000Y769000D02*
X1320000D01*
X1202000Y783000D02*
X1216000Y769000D01*
X1038660Y783000D02*
X1202000D01*
X829530Y992130D02*
X1038660Y783000D01*
X914370Y720000D02*
Y807160D01*
X779530Y942000D02*
X914370Y807160D01*
X779530Y942000D02*
Y1136530D01*
X800000Y1157000D01*
X1764660D01*
X1829530Y1092130D01*
X654370Y763370D02*
X750000Y859000D01*
X654370Y720000D02*
Y763370D01*
X2040000Y210000D02*
Y363000D01*
X1126220Y210000D02*
Y363000D01*
X1882520Y210000D02*
Y352520D01*
X2016692Y486692D01*
X2090000D01*
X1803780Y210000D02*
Y363780D01*
X1850000Y410000D01*
Y486692D01*
X1729530Y992130D02*
X1779530Y1042130D01*
X1857400D01*
X1879530Y1020000D01*
Y962470D02*
Y1020000D01*
Y962470D02*
X1900000Y942000D01*
X2092370D01*
X2154370Y880000D01*
Y720000D02*
Y880000D01*
X1829530Y897840D02*
Y992130D01*
Y897840D02*
X1914370Y813000D01*
Y720000D02*
Y813000D01*
X1290000Y873460D02*
X1293460Y870000D01*
X1375000D01*
X1961260Y210000D02*
Y361260D01*
X2010000Y410000D01*
X2147624D01*
X2241088Y503464D01*
X2256054D01*
X1006054Y403946D02*
Y502598D01*
Y403946D02*
X1047480Y362520D01*
Y210000D02*
Y362520D01*
X879528Y583150D02*
X889370Y573308D01*
X879528Y583150D02*
Y640000D01*
Y643938D01*
X914370Y678780D01*
Y720000D01*
X2119528Y640000D02*
X2129370Y630158D01*
Y573308D02*
Y630158D01*
X2119528Y640000D02*
Y643938D01*
X2154370Y678780D01*
Y720000D01*
X1879528Y583150D02*
Y640000D01*
Y583150D02*
X1889370Y573308D01*
X1879528Y640000D02*
Y643938D01*
X1914370Y678780D01*
Y720000D01*
X619528Y583150D02*
X629370Y573308D01*
X619528Y583150D02*
Y640000D01*
Y643938D01*
X654370Y678780D01*
Y720000D01*
D17*
X811260Y210000D02*
D03*
X890000D02*
D03*
X1047480D02*
D03*
X1126220D02*
D03*
X968740D02*
D03*
X1725040D02*
D03*
X1803780D02*
D03*
X1961260D02*
D03*
X2040000D02*
D03*
X1882520D02*
D03*
D18*
X1220708Y121418D02*
D03*
X716772D02*
D03*
X2134488D02*
D03*
X1630552D02*
D03*
D19*
X994882Y660000D02*
D03*
X1105118D02*
D03*
X2244882D02*
D03*
X2355118D02*
D03*
D20*
X1093946Y577402D02*
D03*
Y502598D02*
D03*
X1006054D02*
D03*
Y540000D02*
D03*
X2343946Y578268D02*
D03*
Y503464D02*
D03*
X2256054D02*
D03*
Y540866D02*
D03*
D21*
X1006054Y577402D02*
D03*
X2256054Y578268D02*
D03*
D22*
X1067716Y730000D02*
D03*
X1032284D02*
D03*
X2317716D02*
D03*
X2282284D02*
D03*
D23*
X1525000Y870000D02*
D03*
Y650000D02*
D03*
X1375000Y870000D02*
D03*
Y650000D02*
D03*
D24*
X525630Y720000D02*
D03*
X654370D02*
D03*
X785630D02*
D03*
X914370D02*
D03*
X1785630D02*
D03*
X1914370D02*
D03*
X2025630D02*
D03*
X2154370D02*
D03*
D25*
X194880Y870000D02*
D03*
X305120D02*
D03*
D26*
X850000Y486692D02*
D03*
X810630Y573308D02*
D03*
X889370D02*
D03*
X2090000Y486692D02*
D03*
X2050630Y573308D02*
D03*
X2129370D02*
D03*
X590000Y486692D02*
D03*
X550630Y573308D02*
D03*
X629370D02*
D03*
X1850000Y486692D02*
D03*
X1810630Y573308D02*
D03*
X1889370D02*
D03*
D27*
X879528Y640000D02*
D03*
X820472D02*
D03*
X2119528D02*
D03*
X2060472D02*
D03*
X619528D02*
D03*
X560472D02*
D03*
X1879528D02*
D03*
X1820472D02*
D03*
D28*
X1290000Y806540D02*
D03*
Y873460D02*
D03*
X303770Y612490D02*
D03*
Y545570D02*
D03*
X230510Y610490D02*
D03*
Y543570D02*
D03*
D29*
X230000Y695000D02*
D03*
X270000D02*
D03*
X310000D02*
D03*
D45*
X329530Y1069910D02*
Y1092130D01*
X274530Y1014910D02*
X329530Y1069910D01*
X274530Y949650D02*
Y1014910D01*
X194880Y870000D02*
X274530Y949650D01*
D46*
X329530Y1092130D02*
X429530D01*
D47*
X2421260Y1043310D02*
D03*
X137800D02*
D03*
X2421260Y137800D02*
D03*
X137800D02*
D03*
D48*
X2229530Y1092130D02*
D03*
Y992130D02*
D03*
X2129530Y1092130D02*
D03*
Y992130D02*
D03*
X2029530Y1092130D02*
D03*
Y992130D02*
D03*
X1929530Y1092130D02*
D03*
Y992130D02*
D03*
X1829530Y1092130D02*
D03*
Y992130D02*
D03*
X1729530Y1092130D02*
D03*
Y992130D02*
D03*
X1629530Y1092130D02*
D03*
Y992130D02*
D03*
X329530Y1092130D02*
D03*
X429530D02*
D03*
X529530D02*
D03*
X629530D02*
D03*
X729530D02*
D03*
X829530D02*
D03*
X929530D02*
D03*
X1029530D02*
D03*
X1129530D02*
D03*
X1229530D02*
D03*
X1329530D02*
D03*
X1429530D02*
D03*
X1529530D02*
D03*
Y992130D02*
D03*
X1429530D02*
D03*
X1329530D02*
D03*
X1229530D02*
D03*
X1129530D02*
D03*
X1029530D02*
D03*
X929530D02*
D03*
X829530D02*
D03*
X729530D02*
D03*
X629530D02*
D03*
X529530D02*
D03*
X429530D02*
D03*
X329530D02*
D03*
D49*
X2450000Y800000D02*
D03*
X1450000Y760000D02*
D03*
X510000Y320000D02*
D03*
X1480000Y310000D02*
D03*
D50*
X370000Y470000D02*
D03*
X160000D02*
D03*
X300000D02*
D03*
X230000D02*
D03*
D51*
X2408268Y578268D02*
D03*
X2406536Y503464D02*
D03*
X1162598Y577402D02*
D03*
X1157402Y502598D02*
D03*
X1060000Y820000D02*
D03*
X970000Y740000D02*
D03*
X360000Y730000D02*
D03*
X260000Y800000D02*
D03*
X750000Y859000D02*
D03*
X2040000Y363000D02*
D03*
X1126220D02*
D03*
M02*
